<svg width="1618" height="610" viewBox="0 0 1618 610" fill="none" xmlns="http://www.w3.org/2000/svg">
<mask id="path-1-inside-1_7472_6716" fill="white">
<path d="M746 217C746 214.791 747.791 213 750 213H986C988.209 213 990 214.791 990 217V393C990 395.209 988.209 397 986 397H750C747.791 397 746 395.209 746 393V217Z"/>
</mask>
<g clip-path="url(#paint0_diamond_7472_6716_clip_path)" data-figma-skip-parse="true" mask="url(#path-1-inside-1_7472_6716)"><g transform="matrix(0 -0.1504 0.199443 0 868 305)"><rect x="0" y="0" width="625" height="621.73" fill="url(#paint0_diamond_7472_6716)" opacity="1" shape-rendering="crispEdges"/><rect x="0" y="0" width="625" height="621.73" transform="scale(1 -1)" fill="url(#paint0_diamond_7472_6716)" opacity="1" shape-rendering="crispEdges"/><rect x="0" y="0" width="625" height="621.73" transform="scale(-1 1)" fill="url(#paint0_diamond_7472_6716)" opacity="1" shape-rendering="crispEdges"/><rect x="0" y="0" width="625" height="621.73" transform="scale(-1)" fill="url(#paint0_diamond_7472_6716)" opacity="1" shape-rendering="crispEdges"/></g></g><path d="M750 215H986V211H750V215ZM988 217V393H992V217H988ZM986 395H750V399H986V395ZM748 393V217H744V393H748ZM750 395C748.895 395 748 394.105 748 393H744C744 396.314 746.686 399 750 399V395ZM988 393C988 394.105 987.105 395 986 395V399C989.314 399 992 396.314 992 393H988ZM986 215C987.105 215 988 215.895 988 217H992C992 213.686 989.314 211 986 211V215ZM750 211C746.686 211 744 213.686 744 217H748C748 215.895 748.895 215 750 215V211Z" data-figma-gradient-fill="{&#34;type&#34;:&#34;GRADIENT_DIAMOND&#34;,&#34;stops&#34;:[{&#34;color&#34;:{&#34;r&#34;:1.0,&#34;g&#34;:1.0,&#34;b&#34;:1.0,&#34;a&#34;:0.0},&#34;position&#34;:0.89311361312866211},{&#34;color&#34;:{&#34;r&#34;:0.81568628549575806,&#34;g&#34;:0.85098040103912354,&#34;b&#34;:0.87450981140136719,&#34;a&#34;:1.0},&#34;position&#34;:1.0}],&#34;stopsVar&#34;:[{&#34;color&#34;:{&#34;r&#34;:1.0,&#34;g&#34;:1.0,&#34;b&#34;:1.0,&#34;a&#34;:0.0},&#34;position&#34;:0.89311361312866211},{&#34;color&#34;:{&#34;r&#34;:0.81568628549575806,&#34;g&#34;:0.85098040103912354,&#34;b&#34;:0.87450981140136719,&#34;a&#34;:1.0},&#34;position&#34;:1.0}],&#34;transform&#34;:{&#34;m00&#34;:-8.0064318890016306e-14,&#34;m01&#34;:398.88693237304688,&#34;m02&#34;:668.55651855468750,&#34;m10&#34;:-300.79998779296875,&#34;m11&#34;:3.1712485285342873e-13,&#34;m12&#34;:455.39999389648438},&#34;opacity&#34;:1.0,&#34;blendMode&#34;:&#34;NORMAL&#34;,&#34;visible&#34;:true}" mask="url(#path-1-inside-1_7472_6716)"/>
<rect x="778" y="245" width="180" height="120" rx="4" fill="#F0F9F4"/>
<path d="M844.76 324.68V325.632C844.312 325.828 843.85 326.01 843.402 326.178V330.098C843.402 330.91 843.024 331.316 842.268 331.316H841.05L840.84 330.322C841.204 330.364 841.568 330.392 841.918 330.392C842.254 330.392 842.422 330.21 842.422 329.846V326.514C841.918 326.668 841.414 326.808 840.91 326.948L840.672 325.982C841.26 325.856 841.848 325.716 842.422 325.548V322.118H840.84V321.152H842.422V318.562H843.402V321.152H844.788V322.118H843.402V325.226C843.864 325.058 844.312 324.876 844.76 324.68ZM846.44 323.714V329.958C847.112 329.776 847.714 329.552 848.274 329.286L848.456 330.224C847.518 330.616 846.44 330.952 845.236 331.232L844.984 330.294C845.292 330.196 845.446 329.986 845.446 329.678V318.702H846.44V322.734H848.414V323.714H846.44ZM851.48 331.204H850.304C849.492 331.204 849.086 330.756 849.086 329.888V318.604H850.08V322.832C850.92 322.552 851.746 322.16 852.53 321.656L853.118 322.482C852.054 323.07 851.046 323.532 850.08 323.84V329.678C850.08 330.056 850.262 330.252 850.626 330.252H851.312C851.634 330.252 851.858 330.14 851.998 329.944C852.18 329.692 852.292 328.936 852.348 327.676L853.272 327.97C853.174 329.51 852.978 330.434 852.684 330.77C852.432 331.05 852.04 331.204 851.48 331.204ZM856.142 324.428H865.886V327.998H861.49V328.782H866.236V329.454H861.49V330.28H867.258V331.064H854.742V330.28H860.482V329.454H855.792V328.782H860.482V327.998H856.142V324.428ZM864.92 327.368V326.514H861.49V327.368H864.92ZM860.482 327.368V326.514H857.108V327.368H860.482ZM857.108 325.926H860.482V325.058H857.108V325.926ZM861.49 325.058V325.926H864.92V325.058H861.49ZM856.45 318.786H865.592V322.244H856.45V318.786ZM864.612 321.642V320.816H857.43V321.642H864.612ZM857.43 320.214H864.612V319.402H857.43V320.214ZM854.728 322.972H867.272V323.728H854.728V322.972ZM871.71 318.436L872.648 318.884C872.34 319.864 871.948 320.774 871.5 321.642V331.428H870.492V323.308C869.988 324.05 869.414 324.75 868.784 325.422L868.476 324.372C869.96 322.65 871.038 320.676 871.71 318.436ZM872.942 321.6H878.304V318.59H879.312V321.6H881.328V322.58H879.312V329.888C879.312 330.84 878.864 331.316 877.996 331.316H875.966L875.742 330.322C876.4 330.364 877.03 330.392 877.646 330.392C878.08 330.392 878.304 330.14 878.304 329.636V322.58H872.942V321.6ZM874.23 324.106C875.294 325.366 876.12 326.472 876.694 327.41L875.84 328.012C875.238 326.99 874.426 325.856 873.404 324.61L874.23 324.106ZM892.892 329.706H891.632L891.352 328.698L892.556 328.74C892.92 328.74 893.102 328.544 893.102 328.18V323.742H889.546V331.428H888.51V323.742H884.94V329.734H883.932V322.762H888.51V320.564C886.886 320.69 885.136 320.76 883.232 320.76L882.924 319.822C887.488 319.808 891.268 319.43 894.278 318.674L894.782 319.556C893.284 319.962 891.534 320.27 889.546 320.48V322.762H894.11V328.404C894.11 329.272 893.704 329.706 892.892 329.706Z" fill="#333333"/>
<path d="M833.61 276.825C834.163 276.825 834.61 277.273 834.61 277.825V293.175C834.61 293.727 834.163 294.175 833.61 294.175H822.387C821.834 294.175 821.387 293.727 821.387 293.175V280.01L824.732 276.825H833.61ZM835.997 277.5C835.997 276.395 835.102 275.5 833.997 275.5H824.56C824.303 275.5 824.056 275.599 823.87 275.776L820.311 279.163C820.112 279.352 820 279.614 820 279.888V293.5C820 294.605 820.895 295.5 822 295.5H833.997C835.102 295.5 835.997 294.605 835.997 293.5V277.5Z" fill="#1B6BD9"/>
<path d="M825.107 285.567C824.917 285.798 824.633 285.933 824.333 285.933H820.629V284.635H823.713C824.013 284.635 824.297 284.5 824.486 284.268L826.014 282.405C826.204 282.173 826.488 282.038 826.787 282.038H829.332V283.337H827.408C827.108 283.337 826.824 283.471 826.634 283.703L825.107 285.567ZM820.629 289.202H827.543V290.5H820.629V289.202ZM824.472 279.447C824.472 279.723 824.249 279.947 823.972 279.947H820L824.472 275.5V279.447Z" fill="#1B6BD9"/>
<path d="M827.74 282.385C827.74 282.631 827.792 282.875 827.892 283.102C827.993 283.33 828.14 283.536 828.326 283.711C828.512 283.885 828.732 284.023 828.975 284.117C829.217 284.211 829.477 284.26 829.74 284.26C830.002 284.26 830.262 284.211 830.505 284.117C830.748 284.023 830.968 283.885 831.154 283.711C831.34 283.536 831.487 283.33 831.587 283.102C831.688 282.875 831.74 282.631 831.74 282.385C831.74 282.139 831.688 281.895 831.587 281.667C831.487 281.44 831.34 281.233 831.154 281.059C830.968 280.885 830.748 280.747 830.505 280.652C830.262 280.558 830.002 280.51 829.74 280.51C829.477 280.51 829.217 280.558 828.975 280.652C828.732 280.747 828.512 280.885 828.326 281.059C828.14 281.233 827.993 281.44 827.892 281.667C827.792 281.895 827.74 282.139 827.74 282.385Z" fill="#1B6BD9"/>
<path d="M826.666 289.875C826.666 290.121 826.717 290.365 826.818 290.593C826.918 290.82 827.066 291.027 827.251 291.201C827.437 291.375 827.657 291.513 827.9 291.607C828.143 291.702 828.403 291.75 828.665 291.75C828.928 291.75 829.188 291.702 829.43 291.607C829.673 291.513 829.893 291.375 830.079 291.201C830.265 291.027 830.412 290.82 830.513 290.593C830.613 290.365 830.665 290.121 830.665 289.875C830.665 289.629 830.613 289.385 830.513 289.157C830.412 288.93 830.265 288.723 830.079 288.549C829.893 288.375 829.673 288.237 829.43 288.143C829.188 288.048 828.928 288 828.665 288C828.403 288 828.143 288.048 827.9 288.143C827.657 288.237 827.437 288.375 827.251 288.549C827.066 288.723 826.918 288.93 826.818 289.157C826.717 289.385 826.666 289.629 826.666 289.875Z" fill="#1B6BD9"/>
<path d="M848.605 277.078L850.207 277.834C849.811 279.058 849.289 280.246 848.677 281.38V293.89H846.967V284.026C846.391 284.782 845.761 285.52 845.077 286.24L844.537 284.458C846.373 282.352 847.741 279.886 848.605 277.078ZM850.405 281.002H856.993V277.312H858.703V281.002H861.187V282.658H858.703V291.802C858.703 293.098 858.073 293.764 856.813 293.764H854.131L853.753 292.09C854.599 292.162 855.427 292.198 856.219 292.198C856.723 292.198 856.993 291.91 856.993 291.37V282.658H850.405V281.002ZM852.259 284.35C853.591 285.916 854.617 287.284 855.337 288.472L853.879 289.48C853.123 288.202 852.115 286.78 850.855 285.214L852.259 284.35ZM876.055 291.676H874.381L873.931 289.966L875.497 290.038C875.875 290.038 876.073 289.84 876.073 289.444V284.152H871.897V293.89H870.169V284.152H865.975V291.712H864.283V282.496H870.169V280.066C868.153 280.21 865.975 280.282 863.635 280.282L863.113 278.68C868.891 278.68 873.751 278.212 877.711 277.312L878.575 278.806C876.667 279.31 874.435 279.67 871.897 279.922V282.496H877.765V289.822C877.765 291.046 877.189 291.676 876.055 291.676ZM888.367 277.204H889.627C891.895 279.76 894.487 281.776 897.439 283.252L896.521 284.89C895.531 284.35 894.595 283.774 893.731 283.162V284.44H884.263V283.126C883.363 283.774 882.409 284.368 881.401 284.926L880.501 283.27C883.651 281.65 886.279 279.616 888.367 277.204ZM884.713 282.802H893.245C891.661 281.614 890.239 280.264 888.997 278.752C887.791 280.228 886.369 281.578 884.713 282.802ZM894.865 286.366V293.836H893.209V292.864H884.785V293.836H883.129V286.366H894.865ZM884.785 291.244H893.209V287.968H884.785V291.244ZM908.365 284.548C909.643 286.06 910.615 287.374 911.299 288.508L909.841 289.516C909.139 288.292 908.167 286.924 906.943 285.43L908.365 284.548ZM908.167 277.204L909.895 277.42C909.697 278.32 909.445 279.184 909.139 280.012H914.647C914.647 286.384 914.557 290.326 914.377 291.838C914.179 293.152 913.279 293.818 911.695 293.818C911.245 293.818 910.471 293.782 909.373 293.728L908.941 292.144C909.895 292.198 910.723 292.234 911.407 292.234C912.199 292.234 912.649 291.838 912.775 291.046C912.883 290.11 912.937 287.014 912.973 281.722H908.419C907.807 282.964 907.051 284.08 906.187 285.07L905.107 283.648C906.619 281.884 907.627 279.742 908.167 277.204ZM905.557 290.02V291.748C903.685 292.36 901.543 292.864 899.149 293.242L898.933 291.55C901.471 291.154 903.685 290.65 905.557 290.02ZM901.687 277.15L903.343 277.798C902.515 279.958 901.687 281.722 900.823 283.072C901.489 283 902.155 282.892 902.839 282.766C903.199 282.082 903.577 281.362 903.973 280.588L905.629 281.2C904.009 284.134 902.641 286.276 901.525 287.626C902.785 287.374 904.045 287.05 905.341 286.618V288.148C903.271 288.814 901.309 289.264 899.455 289.498L899.005 287.932C899.311 287.788 899.563 287.626 899.779 287.428C900.355 286.816 901.075 285.808 901.939 284.368L899.221 284.818L898.789 283.216C899.059 283.108 899.311 282.874 899.527 282.55C900.355 280.93 901.075 279.13 901.687 277.15Z" fill="black"/>
<rect x="1439" y="246" width="178" height="118" rx="3" stroke="#D0D9DF" stroke-width="2"/>
<path d="M1507.41 320.928C1507.77 321.558 1508.09 322.244 1508.4 323H1509.77C1510.16 322.3 1510.49 321.558 1510.77 320.774L1511.72 321.11C1511.45 321.81 1511.16 322.44 1510.84 323H1513.1V323.966H1505.29V323H1507.43C1507.15 322.384 1506.87 321.824 1506.58 321.32L1507.41 320.928ZM1509.25 318.478C1509.41 318.87 1509.56 319.318 1509.72 319.808H1512.85V320.732H1505.61V319.808H1508.69C1508.54 319.388 1508.37 318.996 1508.2 318.646L1509.25 318.478ZM1502.27 331.274H1501.05L1500.84 330.294C1501.22 330.322 1501.58 330.35 1501.92 330.35C1502.28 330.35 1502.48 330.168 1502.48 329.804V326.36C1501.92 326.584 1501.34 326.794 1500.77 326.976L1500.52 325.968C1501.18 325.8 1501.83 325.59 1502.48 325.338V322.216H1500.77V321.25H1502.48V318.604H1503.51V321.25H1504.68V322.216H1503.51V324.904C1503.91 324.708 1504.3 324.512 1504.69 324.302V325.324C1504.3 325.534 1503.91 325.73 1503.51 325.912V330.056C1503.51 330.868 1503.09 331.274 1502.27 331.274ZM1508.02 324.358L1508.99 324.47C1508.85 324.848 1508.69 325.212 1508.53 325.562H1513.33V326.542H1511.79C1511.58 327.578 1511.14 328.46 1510.49 329.174C1511.44 329.622 1512.36 330.098 1513.24 330.602L1512.7 331.414C1511.86 330.896 1510.89 330.378 1509.77 329.846C1508.85 330.518 1507.38 331.064 1505.36 331.456L1504.97 330.546C1506.59 330.252 1507.85 329.86 1508.72 329.356C1507.87 328.964 1506.96 328.586 1505.98 328.194C1506.36 327.62 1506.69 327.074 1506.99 326.542H1505.11V325.562H1507.5C1507.7 325.142 1507.87 324.75 1508.02 324.358ZM1510.84 326.542H1508.01C1507.76 326.976 1507.49 327.396 1507.21 327.788C1508.02 328.096 1508.81 328.418 1509.56 328.754C1510.19 328.166 1510.61 327.438 1510.84 326.542ZM1515.26 328.628L1514.95 327.774C1515.15 327.69 1515.26 327.578 1515.26 327.438V319.766H1516.24V327.41C1516.94 327.214 1517.64 326.976 1518.34 326.71V318.632H1519.33V331.316H1518.34V327.69C1517.36 328.04 1516.32 328.348 1515.26 328.628ZM1522.19 321.684C1522.02 322.132 1521.85 322.552 1521.67 322.944C1522.18 324.316 1522.82 325.576 1523.63 326.724C1524.47 325.296 1524.92 323.616 1525 321.684H1522.19ZM1521.08 324.036C1520.82 324.456 1520.54 324.834 1520.24 325.184L1519.61 324.414C1520.76 322.958 1521.55 320.984 1521.95 318.52L1522.96 318.688C1522.82 319.402 1522.67 320.074 1522.5 320.69H1527.17V321.684H1525.97C1525.87 323.98 1525.31 325.954 1524.28 327.578C1525.2 328.726 1526.26 329.748 1527.5 330.644L1526.81 331.456C1525.59 330.546 1524.54 329.538 1523.66 328.446C1522.74 329.608 1521.55 330.574 1520.09 331.358L1519.52 330.448C1520.99 329.72 1522.16 328.782 1523.03 327.634C1522.25 326.514 1521.59 325.324 1521.08 324.036ZM1529.76 318.786C1530.73 319.514 1531.54 320.242 1532.2 320.97L1531.49 321.67C1530.9 320.97 1530.1 320.228 1529.08 319.444L1529.76 318.786ZM1537.95 331.148C1537.18 331.148 1536.34 331.134 1535.45 331.12C1534.54 331.106 1533.8 331.022 1533.24 330.868C1532.68 330.7 1532.17 330.35 1531.74 329.846C1531.54 329.608 1531.36 329.496 1531.19 329.496C1530.86 329.496 1530.3 330.14 1529.53 331.428L1528.77 330.742C1529.51 329.566 1530.17 328.852 1530.74 328.6V324.344H1528.76V323.42H1531.68V328.656C1531.79 328.74 1531.91 328.838 1532.03 328.978C1532.37 329.384 1532.73 329.678 1533.12 329.86C1533.57 330.056 1534.2 330.168 1535.04 330.196C1535.78 330.21 1536.71 330.224 1537.81 330.224C1538.46 330.224 1539.13 330.21 1539.82 330.196C1540.49 330.182 1541.01 330.168 1541.37 330.14L1541.13 331.148H1537.95ZM1535.45 320.13C1536.04 320.48 1536.58 320.83 1537.06 321.18C1537.79 320.802 1538.46 320.382 1539.07 319.906H1532.86V319.052H1540.43V319.78C1539.59 320.508 1538.68 321.138 1537.7 321.67L1537.93 321.852H1540.7V328.11C1540.7 328.824 1540.31 329.188 1539.52 329.188H1538.36L1538.14 328.334L1539.24 328.376C1539.58 328.376 1539.75 328.208 1539.75 327.9V326.85H1537.39V329.258H1536.46V326.85H1534.12V329.3H1533.17V321.852H1536.67C1536.13 321.474 1535.52 321.096 1534.83 320.732L1535.45 320.13ZM1534.12 324.792V326.024H1536.46V324.792H1534.12ZM1537.39 324.792V326.024H1539.75V324.792H1537.39ZM1539.75 323.952V322.692H1537.39V323.952H1539.75ZM1536.46 323.952V322.692H1534.12V323.952H1536.46ZM1554.74 320.046V330.756H1553.76V329.86H1551.02V330.784H1550.05V320.046H1554.74ZM1551.02 328.922H1553.76V320.984H1551.02V328.922ZM1544.76 321.404C1544.41 322.16 1544.02 322.86 1543.58 323.504L1542.7 322.944C1543.62 321.6 1544.28 320.13 1544.7 318.52L1545.7 318.73C1545.53 319.332 1545.35 319.906 1545.15 320.438H1549.2V321.404H1547.15C1547.14 322.412 1547.08 323.35 1546.98 324.19H1549.32V325.156H1546.84C1546.77 325.52 1546.7 325.884 1546.62 326.22C1547.52 327.13 1548.44 328.166 1549.36 329.314L1548.76 330.238C1547.81 328.894 1547.01 327.872 1546.35 327.144C1545.78 328.712 1544.76 330.028 1543.27 331.092L1542.62 330.28C1544.1 329.202 1545.08 327.844 1545.56 326.206C1545.64 325.87 1545.72 325.52 1545.79 325.156H1542.87V324.19H1545.93C1546.05 323.35 1546.1 322.412 1546.12 321.404H1544.76Z" fill="#333333"/>
<g clip-path="url(#clip0_7472_6716)">
<path d="M1512.84 276.26H1499.04C1497.4 276.26 1496 277.547 1496 279.184V287.839C1496 289.477 1497.4 290.764 1499.04 290.764H1512.96C1514.6 290.764 1516 289.477 1516 287.839V279.184C1515.88 277.547 1514.48 276.26 1512.84 276.26ZM1513.9 288.775C1513.66 289.009 1513.19 289.243 1512.84 289.243H1499.04C1498.22 289.243 1497.52 288.541 1497.52 287.839V279.184C1497.52 278.833 1497.64 278.483 1497.99 278.132C1498.22 277.898 1498.57 277.664 1499.04 277.664H1512.96C1513.31 277.664 1513.78 277.781 1514.01 278.132C1514.25 278.366 1514.48 278.716 1514.48 279.184V287.839C1514.36 288.19 1514.25 288.541 1513.9 288.775ZM1510.62 293.571H1501.26C1500.91 293.571 1500.56 293.921 1500.56 294.272C1500.56 294.623 1500.91 294.974 1501.26 294.974H1510.62C1510.85 294.974 1511.21 294.857 1511.32 294.623C1511.44 294.389 1511.44 294.155 1511.32 293.921C1511.21 293.688 1510.85 293.571 1510.62 293.571Z" fill="#1B6BD9"/>
</g>
<path d="M1529.47 287.14C1529.13 287.374 1528.79 287.608 1528.43 287.824L1527.37 286.456V293.728H1525.73V282.046H1529.47C1529.22 281.398 1528.95 280.768 1528.63 280.192H1524.97V278.554H1532.05C1531.88 278.122 1531.7 277.708 1531.52 277.348L1533.41 277.06C1533.59 277.51 1533.76 278.014 1533.94 278.554H1541.03V280.192H1537.25C1536.96 280.876 1536.67 281.488 1536.37 282.046H1540.24V291.694C1540.24 293.062 1539.64 293.764 1538.47 293.764H1536.64L1536.2 292.216L1537.93 292.27C1538.36 292.27 1538.6 291.946 1538.6 291.334V283.558H1527.37V286.384C1528.81 285.592 1529.99 284.656 1530.97 283.594L1532.17 284.656C1531.43 285.52 1530.59 286.312 1529.63 287.014H1536.51V291.766H1529.47V287.14ZM1534.85 290.254V288.544H1531.13V290.254H1534.85ZM1534.91 283.576C1536.35 284.566 1537.57 285.556 1538.56 286.528L1537.28 287.788C1536.46 286.816 1535.27 285.79 1533.76 284.674L1534.91 283.576ZM1531.22 282.046H1534.49C1534.82 281.434 1535.11 280.822 1535.38 280.192H1530.5C1530.75 280.75 1531 281.362 1531.22 282.046ZM1556.11 280.984H1546.3V284.044H1556.11V280.984ZM1546.28 285.718C1546.18 288.886 1545.35 291.64 1543.78 293.944L1542.52 292.792C1543.89 290.83 1544.59 288.292 1544.61 285.196V279.31H1550.39C1550.1 278.626 1549.78 277.978 1549.42 277.384L1551.25 277.096C1551.56 277.762 1551.85 278.5 1552.13 279.31H1557.84V285.718H1546.28Z" fill="black"/>
<rect x="1047" y="1" width="334" height="608" rx="3" stroke="#D0D9DF" stroke-width="2"/>
<path d="M1231.25 322C1231.25 322.23 1231.3 322.457 1231.38 322.67C1231.47 322.882 1231.6 323.075 1231.76 323.237C1231.93 323.4 1232.12 323.529 1232.33 323.617C1232.54 323.705 1232.77 323.75 1233 323.75C1233.23 323.75 1233.46 323.705 1233.67 323.617C1233.88 323.529 1234.07 323.4 1234.24 323.237C1234.4 323.075 1234.53 322.882 1234.62 322.67C1234.7 322.457 1234.75 322.23 1234.75 322C1234.75 321.77 1234.7 321.543 1234.62 321.33C1234.53 321.118 1234.4 320.925 1234.24 320.763C1234.07 320.6 1233.88 320.471 1233.67 320.383C1233.46 320.295 1233.23 320.25 1233 320.25C1232.77 320.25 1232.54 320.295 1232.33 320.383C1232.12 320.471 1231.93 320.6 1231.76 320.763C1231.6 320.925 1231.47 321.118 1231.38 321.33C1231.3 321.543 1231.25 321.77 1231.25 322Z" fill="black"/>
<path d="M1237.25 322C1237.25 322.23 1237.3 322.457 1237.38 322.67C1237.47 322.882 1237.6 323.075 1237.76 323.237C1237.93 323.4 1238.12 323.529 1238.33 323.617C1238.54 323.705 1238.77 323.75 1239 323.75C1239.23 323.75 1239.46 323.705 1239.67 323.617C1239.88 323.529 1240.07 323.4 1240.24 323.237C1240.4 323.075 1240.53 322.882 1240.62 322.67C1240.7 322.457 1240.75 322.23 1240.75 322C1240.75 321.536 1240.57 321.091 1240.24 320.763C1239.91 320.434 1239.46 320.25 1239 320.25C1238.54 320.25 1238.09 320.434 1237.76 320.763C1237.43 321.091 1237.25 321.536 1237.25 322Z" fill="black"/>
<path d="M1243.25 322C1243.25 322.464 1243.43 322.909 1243.76 323.237C1244.09 323.566 1244.54 323.75 1245 323.75C1245.46 323.75 1245.91 323.566 1246.24 323.237C1246.57 322.909 1246.75 322.464 1246.75 322C1246.75 321.536 1246.57 321.091 1246.24 320.763C1245.91 320.434 1245.46 320.25 1245 320.25C1244.54 320.25 1244.09 320.434 1243.76 320.763C1243.43 321.091 1243.25 321.536 1243.25 322Z" fill="black"/>
<mask id="path-18-outside-2_7472_6716" maskUnits="userSpaceOnUse" x="1078" y="31" width="272" height="76" fill="black">
<rect fill="white" x="1078" y="31" width="272" height="76"/>
<path d="M1078 34C1078 32.8954 1078.9 32 1080 32H1348C1349.1 32 1350 32.8954 1350 34V104C1350 105.105 1349.1 106 1348 106H1080C1078.9 106 1078 105.105 1078 104V34Z"/>
</mask>
<path d="M1078 34C1078 32.3431 1079.34 31 1081 31H1347C1348.66 31 1350 32.3431 1350 34C1350 33.4477 1349.1 33 1348 33H1080C1078.9 33 1078 33.4477 1078 34ZM1350 104C1350 105.657 1348.66 107 1347 107H1081C1079.34 107 1078 105.657 1078 104C1078 104.552 1078.9 105 1080 105H1348C1349.1 105 1350 104.552 1350 104ZM1078 106V32V106ZM1350 32V106V32Z" fill="url(#paint1_linear_7472_6716)" mask="url(#path-18-outside-2_7472_6716)"/>
<path d="M1294 69C1294 71.1011 1294.41 73.1817 1295.22 75.1229C1296.02 77.0641 1297.2 78.828 1298.69 80.3137C1300.17 81.7994 1301.94 82.978 1303.88 83.7821C1305.82 84.5861 1307.9 85 1310 85C1312.1 85 1314.18 84.5861 1316.12 83.7821C1318.06 82.978 1319.83 81.7994 1321.31 80.3137C1322.8 78.828 1323.98 77.0641 1324.78 75.1229C1325.59 73.1817 1326 71.1011 1326 69C1326 66.8988 1325.59 64.8183 1324.78 62.8771C1323.98 60.9359 1322.8 59.172 1321.31 57.6863C1319.83 56.2006 1318.06 55.022 1316.12 54.2179C1314.18 53.4139 1312.1 53 1310 53C1307.9 53 1305.82 53.4139 1303.88 54.2179C1301.94 55.022 1300.17 56.2006 1298.69 57.6863C1297.2 59.172 1296.02 60.9359 1295.22 62.8771C1294.41 64.8183 1294 66.8988 1294 69Z" fill="#26A17B"/>
<path d="M1318 68.2364C1318 66.9264 1314.98 66.1587 1311.59 65.9766V64.3732H1316.33V61H1303.67V64.3732H1308.41V65.9766C1305.02 66.1587 1302 66.9267 1302 68.2364C1302 69.5457 1305.02 70.3134 1308.41 70.4955V77H1311.59V70.4958C1314.98 70.3137 1318 69.5457 1318 68.2364ZM1311.59 69.9345V69.9277C1311.07 69.9613 1310.53 69.9726 1310 69.9726C1309.47 69.9726 1308.93 69.9613 1308.41 69.9277V69.9345C1304.73 69.7368 1302.53 68.8762 1302.53 68.2364C1302.53 67.5968 1304.73 66.7356 1308.41 66.5379V69.3655C1308.92 69.3991 1309.45 69.4104 1310 69.4104C1310.56 69.4104 1311.09 69.3991 1311.59 69.3655V66.5379C1315.27 66.7356 1317.47 67.5968 1317.47 68.2364C1317.47 68.8762 1315.27 69.7368 1311.59 69.9345Z" fill="white"/>
<path d="M1118.78 55.534C1118.78 59.314 1118.67 61.6 1118.47 62.41C1118.27 63.202 1117.46 63.616 1116.02 63.616H1115.95L1115.45 61.942C1115.81 61.96 1116.11 61.978 1116.38 61.978C1116.72 61.978 1116.94 61.78 1117.01 61.42C1117.08 61.096 1117.12 59.872 1117.14 57.766L1114.94 58.414V65.02H1113.29V58.918L1111.09 59.584V66.172C1111.09 66.676 1111.38 66.928 1111.95 66.928H1116.81C1117.1 66.928 1117.32 66.802 1117.46 66.55C1117.62 66.298 1117.73 65.506 1117.8 64.138L1119.39 64.642C1119.24 66.514 1119.01 67.648 1118.65 68.008C1118.31 68.35 1117.8 68.53 1117.14 68.53H1111.43C1110.08 68.53 1109.42 67.846 1109.42 66.514V60.088L1108.16 60.466V58.792L1109.42 58.414V54.076H1111.09V57.892L1113.29 57.226V52.24H1114.94V56.722L1118.78 55.534ZM1108.37 63.112V64.822C1106.7 65.596 1104.92 66.244 1103.01 66.784L1102.58 65.056C1103.3 64.912 1104.02 64.732 1104.72 64.534V58.54H1102.81V56.884H1104.72V52.348H1106.39V56.884H1108.12V58.54H1106.39V63.958C1107.06 63.706 1107.72 63.418 1108.37 63.112ZM1131.74 52.258H1133.45V57.856H1136.69V59.512H1133.45V66.568H1137.24V68.242H1125.8V66.568H1127.74V56.074H1129.47V66.568H1131.74V52.258ZM1126.75 63.292V65.092C1124.95 65.74 1123.02 66.28 1120.97 66.712L1120.5 64.876C1121.26 64.768 1122.03 64.624 1122.79 64.462V58.432H1120.68V56.758H1122.79V52.312H1124.52V56.758H1126.59V58.432H1124.52V64.012C1125.27 63.796 1126.01 63.562 1126.75 63.292ZM1148.17 54.148H1149.65V67H1147.68V56.506C1146.91 57.244 1145.92 57.784 1144.73 58.126V56.182C1145.31 56.038 1145.9 55.786 1146.55 55.426C1147.2 55.03 1147.74 54.616 1148.17 54.148Z" fill="black"/>
<path d="M1111.53 83.48V87.236H1110.69V86.72H1105.53V87.236H1104.69V83.48H1111.53ZM1105.53 85.94H1110.69V84.26H1105.53V85.94ZM1106.49 78.128L1107.33 78.308C1107.15 78.584 1106.97 78.848 1106.78 79.1H1111.2V79.796C1110.71 80.48 1110 81.08 1109.08 81.608C1110.39 82.124 1111.85 82.436 1113.47 82.556L1113.28 83.336C1111.36 83.192 1109.67 82.772 1108.18 82.052C1106.76 82.7 1104.98 83.204 1102.82 83.576L1102.49 82.808C1104.42 82.496 1106.03 82.1 1107.3 81.596C1106.69 81.236 1106.13 80.828 1105.61 80.372C1105.14 80.792 1104.64 81.164 1104.11 81.5L1103.56 80.828C1104.75 80.144 1105.72 79.244 1106.49 78.128ZM1108.19 81.212C1109.02 80.804 1109.68 80.336 1110.17 79.832H1106.15L1106.12 79.868C1106.75 80.396 1107.45 80.84 1108.19 81.212ZM1112.87 77.096V79.364H1112V77.876H1104V79.364H1103.13V77.096H1107.52C1107.38 76.784 1107.23 76.508 1107.08 76.256L1108.02 76.112C1108.17 76.4 1108.3 76.736 1108.44 77.096H1112.87ZM1123.59 78.524H1116.74V80.864H1123.59V78.524ZM1116.74 81.704C1116.68 83.852 1116.11 85.7 1115.03 87.248L1114.4 86.672C1115.37 85.328 1115.86 83.576 1115.88 81.428V77.672H1119.8C1119.58 77.168 1119.35 76.7 1119.1 76.268L1120.02 76.124C1120.24 76.58 1120.46 77.096 1120.67 77.672H1124.46V81.704H1116.74Z" fill="#666666"/>
<mask id="path-24-outside-3_7472_6716" maskUnits="userSpaceOnUse" x="1078" y="121" width="272" height="76" fill="black">
<rect fill="white" x="1078" y="121" width="272" height="76"/>
<path d="M1078 124C1078 122.895 1078.9 122 1080 122H1348C1349.1 122 1350 122.895 1350 124V194C1350 195.105 1349.1 196 1348 196H1080C1078.9 196 1078 195.105 1078 194V124Z"/>
</mask>
<path d="M1078 124C1078 122.343 1079.34 121 1081 121H1347C1348.66 121 1350 122.343 1350 124C1350 123.448 1349.1 123 1348 123H1080C1078.9 123 1078 123.448 1078 124ZM1350 194C1350 195.657 1348.66 197 1347 197H1081C1079.34 197 1078 195.657 1078 194C1078 194.552 1078.9 195 1080 195H1348C1349.1 195 1350 194.552 1350 194ZM1078 196V122V196ZM1350 122V196V122Z" fill="url(#paint2_linear_7472_6716)" mask="url(#path-24-outside-3_7472_6716)"/>
<path d="M1294 159C1294 167.83 1301.17 175 1310 175C1318.83 175 1326 167.83 1326 159C1326 150.17 1318.83 143 1310 143C1301.17 143 1294 150.17 1294 159Z" fill="#2775C9"/>
<path d="M1309.04 152.746V151.686C1309.04 151.122 1309.46 150.673 1310 150.673C1310.54 150.673 1310.96 151.122 1310.96 151.686V152.736C1312.7 153.005 1313.88 154.054 1314.2 155.536C1314.27 155.863 1314.09 156.18 1313.78 156.259C1313.74 156.269 1313.69 156.269 1313.65 156.269H1313.12C1312.71 156.269 1312.33 156.011 1312.15 155.615C1311.82 154.872 1311.02 154.444 1309.98 154.444C1308.67 154.444 1307.8 155.12 1307.8 156.132C1307.8 156.944 1308.38 157.414 1309.8 157.772L1311.14 158.099C1313.48 158.664 1314.48 159.687 1314.48 161.507C1314.48 163.521 1313.14 164.882 1310.95 165.209V166.422C1310.95 166.987 1310.53 167.435 1309.99 167.435C1309.46 167.435 1309.03 166.987 1309.03 166.422V165.22C1307.09 164.972 1305.78 163.891 1305.48 162.24C1305.43 161.971 1305.6 161.702 1305.86 161.654C1305.89 161.644 1305.92 161.644 1305.95 161.644H1306.74C1307.09 161.644 1307.43 161.86 1307.57 162.198C1307.94 163.01 1308.87 163.5 1310.03 163.5C1311.43 163.5 1312.4 162.767 1312.4 161.754C1312.4 160.879 1311.81 160.373 1310.35 159.998L1308.85 159.629C1306.71 159.112 1305.7 158.031 1305.7 156.285C1305.7 154.423 1307.04 153.073 1309.04 152.746ZM1298 159.012C1298 153.432 1301.45 148.695 1306.24 147.029C1306.54 146.929 1306.88 147.097 1306.97 147.414C1306.99 147.472 1307 147.535 1307 147.604V147.962C1307 148.5 1306.69 148.996 1306.21 149.202C1302.53 150.779 1299.93 154.571 1299.93 159.012C1299.93 163.448 1302.51 167.25 1306.19 168.811C1306.67 169.012 1306.99 169.508 1306.99 170.061V170.352C1306.99 170.71 1306.72 170.995 1306.39 170.995C1306.32 170.995 1306.25 170.984 1306.19 170.963C1301.43 169.307 1298 164.581 1298 159.012ZM1322 159.012C1322 164.571 1318.59 169.286 1313.84 170.963C1313.51 171.085 1313.15 170.895 1313.03 170.547C1313.01 170.478 1313 170.399 1313 170.33V170.093C1313 169.529 1313.32 169.022 1313.81 168.811C1317.48 167.234 1320.07 163.442 1320.07 159.012C1320.07 154.592 1317.49 150.8 1313.82 149.223C1313.32 149.007 1313 148.49 1313 147.931V147.714C1313 147.345 1313.29 147.039 1313.64 147.039C1313.71 147.039 1313.78 147.05 1313.84 147.071C1318.58 148.748 1322 153.463 1322 159.012Z" fill="white"/>
<path d="M1118.78 145.534C1118.78 149.314 1118.67 151.6 1118.47 152.41C1118.27 153.202 1117.46 153.616 1116.02 153.616H1115.95L1115.45 151.942C1115.81 151.96 1116.11 151.978 1116.38 151.978C1116.72 151.978 1116.94 151.78 1117.01 151.42C1117.08 151.096 1117.12 149.872 1117.14 147.766L1114.94 148.414V155.02H1113.29V148.918L1111.09 149.584V156.172C1111.09 156.676 1111.38 156.928 1111.95 156.928H1116.81C1117.1 156.928 1117.32 156.802 1117.46 156.55C1117.62 156.298 1117.73 155.506 1117.8 154.138L1119.39 154.642C1119.24 156.514 1119.01 157.648 1118.65 158.008C1118.31 158.35 1117.8 158.53 1117.14 158.53H1111.43C1110.08 158.53 1109.42 157.846 1109.42 156.514V150.088L1108.16 150.466V148.792L1109.42 148.414V144.076H1111.09V147.892L1113.29 147.226V142.24H1114.94V146.722L1118.78 145.534ZM1108.37 153.112V154.822C1106.7 155.596 1104.92 156.244 1103.01 156.784L1102.58 155.056C1103.3 154.912 1104.02 154.732 1104.72 154.534V148.54H1102.81V146.884H1104.72V142.348H1106.39V146.884H1108.12V148.54H1106.39V153.958C1107.06 153.706 1107.72 153.418 1108.37 153.112ZM1131.74 142.258H1133.45V147.856H1136.69V149.512H1133.45V156.568H1137.24V158.242H1125.8V156.568H1127.74V146.074H1129.47V156.568H1131.74V142.258ZM1126.75 153.292V155.092C1124.95 155.74 1123.02 156.28 1120.97 156.712L1120.5 154.876C1121.26 154.768 1122.03 154.624 1122.79 154.462V148.432H1120.68V146.758H1122.79V142.312H1124.52V146.758H1126.59V148.432H1124.52V154.012C1125.27 153.796 1126.01 153.562 1126.75 153.292ZM1149.59 143.896C1150.82 143.896 1151.84 144.238 1152.63 144.958C1153.41 145.678 1153.8 146.596 1153.8 147.73C1153.8 148.846 1153.37 149.854 1152.54 150.772C1152.04 151.294 1151.16 151.978 1149.88 152.842C1148.49 153.76 1147.67 154.57 1147.4 155.272H1153.82V157H1144.97C1144.97 155.722 1145.38 154.606 1146.24 153.634C1146.71 153.076 1147.68 152.302 1149.14 151.294C1150.01 150.682 1150.62 150.196 1150.98 149.818C1151.55 149.17 1151.86 148.468 1151.86 147.712C1151.86 146.992 1151.66 146.452 1151.27 146.092C1150.87 145.732 1150.28 145.552 1149.52 145.552C1148.71 145.552 1148.1 145.822 1147.68 146.38C1147.25 146.92 1147.04 147.694 1147 148.738H1145.04C1145.06 147.298 1145.47 146.146 1146.28 145.282C1147.11 144.346 1148.22 143.896 1149.59 143.896Z" fill="black"/>
<path d="M1111.53 173.48V177.236H1110.69V176.72H1105.53V177.236H1104.69V173.48H1111.53ZM1105.53 175.94H1110.69V174.26H1105.53V175.94ZM1106.49 168.128L1107.33 168.308C1107.15 168.584 1106.97 168.848 1106.78 169.1H1111.2V169.796C1110.71 170.48 1110 171.08 1109.08 171.608C1110.39 172.124 1111.85 172.436 1113.47 172.556L1113.28 173.336C1111.36 173.192 1109.67 172.772 1108.18 172.052C1106.76 172.7 1104.98 173.204 1102.82 173.576L1102.49 172.808C1104.42 172.496 1106.03 172.1 1107.3 171.596C1106.69 171.236 1106.13 170.828 1105.61 170.372C1105.14 170.792 1104.64 171.164 1104.11 171.5L1103.56 170.828C1104.75 170.144 1105.72 169.244 1106.49 168.128ZM1108.19 171.212C1109.02 170.804 1109.68 170.336 1110.17 169.832H1106.15L1106.12 169.868C1106.75 170.396 1107.45 170.84 1108.19 171.212ZM1112.87 167.096V169.364H1112V167.876H1104V169.364H1103.13V167.096H1107.52C1107.38 166.784 1107.23 166.508 1107.08 166.256L1108.02 166.112C1108.17 166.4 1108.3 166.736 1108.44 167.096H1112.87ZM1123.59 168.524H1116.74V170.864H1123.59V168.524ZM1116.74 171.704C1116.68 173.852 1116.11 175.7 1115.03 177.248L1114.4 176.672C1115.37 175.328 1115.86 173.576 1115.88 171.428V167.672H1119.8C1119.58 167.168 1119.35 166.7 1119.1 166.268L1120.02 166.124C1120.24 166.58 1120.46 167.096 1120.67 167.672H1124.46V171.704H1116.74Z" fill="#666666"/>
<mask id="path-30-outside-4_7472_6716" maskUnits="userSpaceOnUse" x="1078" y="211" width="272" height="76" fill="black">
<rect fill="white" x="1078" y="211" width="272" height="76"/>
<path d="M1078 214C1078 212.895 1078.9 212 1080 212H1348C1349.1 212 1350 212.895 1350 214V284C1350 285.105 1349.1 286 1348 286H1080C1078.9 286 1078 285.105 1078 284V214Z"/>
</mask>
<path d="M1078 214C1078 212.343 1079.34 211 1081 211H1347C1348.66 211 1350 212.343 1350 214C1350 213.448 1349.1 213 1348 213H1080C1078.9 213 1078 213.448 1078 214ZM1350 284C1350 285.657 1348.66 287 1347 287H1081C1079.34 287 1078 285.657 1078 284C1078 284.552 1078.9 285 1080 285H1348C1349.1 285 1350 284.552 1350 284ZM1078 286V212V286ZM1350 212V286V212Z" fill="url(#paint3_linear_7472_6716)" mask="url(#path-30-outside-4_7472_6716)"/>
<path d="M1118.78 235.534C1118.78 239.314 1118.67 241.6 1118.47 242.41C1118.27 243.202 1117.46 243.616 1116.02 243.616H1115.95L1115.45 241.942C1115.81 241.96 1116.11 241.978 1116.38 241.978C1116.72 241.978 1116.94 241.78 1117.01 241.42C1117.08 241.096 1117.12 239.872 1117.14 237.766L1114.94 238.414V245.02H1113.29V238.918L1111.09 239.584V246.172C1111.09 246.676 1111.38 246.928 1111.95 246.928H1116.81C1117.1 246.928 1117.32 246.802 1117.46 246.55C1117.62 246.298 1117.73 245.506 1117.8 244.138L1119.39 244.642C1119.24 246.514 1119.01 247.648 1118.65 248.008C1118.31 248.35 1117.8 248.53 1117.14 248.53H1111.43C1110.08 248.53 1109.42 247.846 1109.42 246.514V240.088L1108.16 240.466V238.792L1109.42 238.414V234.076H1111.09V237.892L1113.29 237.226V232.24H1114.94V236.722L1118.78 235.534ZM1108.37 243.112V244.822C1106.7 245.596 1104.92 246.244 1103.01 246.784L1102.58 245.056C1103.3 244.912 1104.02 244.732 1104.72 244.534V238.54H1102.81V236.884H1104.72V232.348H1106.39V236.884H1108.12V238.54H1106.39V243.958C1107.06 243.706 1107.72 243.418 1108.37 243.112ZM1131.74 232.258H1133.45V237.856H1136.69V239.512H1133.45V246.568H1137.24V248.242H1125.8V246.568H1127.74V236.074H1129.47V246.568H1131.74V232.258ZM1126.75 243.292V245.092C1124.95 245.74 1123.02 246.28 1120.97 246.712L1120.5 244.876C1121.26 244.768 1122.03 244.624 1122.79 244.462V238.432H1120.68V236.758H1122.79V232.312H1124.52V236.758H1126.59V238.432H1124.52V244.012C1125.27 243.796 1126.01 243.562 1126.75 243.292ZM1149.52 233.896C1150.82 233.896 1151.84 234.202 1152.63 234.832C1153.39 235.462 1153.79 236.326 1153.79 237.424C1153.79 238.828 1153.07 239.782 1151.66 240.25C1152.42 240.484 1152.99 240.844 1153.39 241.312C1153.82 241.798 1154.04 242.428 1154.04 243.184C1154.04 244.372 1153.62 245.344 1152.81 246.1C1151.95 246.856 1150.82 247.252 1149.45 247.252C1148.13 247.252 1147.07 246.91 1146.28 246.244C1145.38 245.488 1144.88 244.39 1144.77 242.95H1146.75C1146.78 243.814 1147.05 244.48 1147.59 244.948C1148.06 245.38 1148.67 245.596 1149.43 245.596C1150.26 245.596 1150.92 245.344 1151.43 244.876C1151.86 244.444 1152.09 243.922 1152.09 243.274C1152.09 242.518 1151.86 241.96 1151.39 241.6C1150.96 241.24 1150.31 241.06 1149.47 241.06H1148.53V239.584H1149.45C1150.24 239.584 1150.83 239.404 1151.23 239.062C1151.63 238.72 1151.84 238.216 1151.84 237.568C1151.84 236.92 1151.64 236.434 1151.28 236.092C1150.89 235.732 1150.29 235.57 1149.54 235.57C1148.76 235.57 1148.15 235.768 1147.72 236.164C1147.29 236.56 1147.02 237.154 1146.95 237.946H1145.02C1145.13 236.668 1145.6 235.678 1146.44 234.958C1147.23 234.238 1148.26 233.896 1149.52 233.896Z" fill="black"/>
<path d="M1310 233C1318.84 233 1326 240.164 1326 249C1326 257.837 1318.84 265 1310 265C1301.16 265 1294 257.836 1294 249C1294 240.164 1301.16 233 1310 233Z" fill="#F5AC37"/>
<path d="M1310.75 250.145H1316.85C1316.98 250.145 1317.05 250.145 1317.05 249.974C1317.1 249.348 1317.1 248.718 1317.05 248.092C1317.05 247.97 1316.99 247.921 1316.86 247.921H1304.72C1304.57 247.921 1304.53 247.97 1304.53 248.112V249.914C1304.53 250.146 1304.53 250.146 1304.77 250.146H1310.75V250.145ZM1316.37 245.816C1316.39 245.77 1316.39 245.72 1316.37 245.674C1316.27 245.451 1316.15 245.238 1316.01 245.037C1315.8 244.695 1315.55 244.379 1315.27 244.096C1315.13 243.925 1314.98 243.772 1314.81 243.641C1313.94 242.896 1312.9 242.369 1311.79 242.103C1311.23 241.977 1310.66 241.916 1310.09 241.921H1304.7C1304.55 241.921 1304.53 241.981 1304.53 242.113V245.704C1304.53 245.856 1304.53 245.896 1304.72 245.896H1316.3C1316.3 245.896 1316.4 245.876 1316.42 245.816H1316.37ZM1316.37 252.25C1316.2 252.231 1316.03 252.231 1315.86 252.25H1304.73C1304.58 252.25 1304.53 252.25 1304.53 252.452V255.963C1304.53 256.125 1304.53 256.166 1304.73 256.166H1309.87C1310.11 256.184 1310.36 256.167 1310.6 256.116C1311.35 256.062 1312.08 255.898 1312.78 255.63C1313.03 255.541 1313.28 255.425 1313.51 255.286H1313.58C1314.79 254.655 1315.76 253.662 1316.38 252.444C1316.38 252.444 1316.45 252.291 1316.37 252.252V252.25ZM1302.51 257.986V252.392C1302.51 252.26 1302.51 252.24 1302.35 252.24H1300.17C1300.05 252.24 1300 252.24 1300 252.078V250.156H1302.33C1302.46 250.156 1302.51 250.156 1302.51 249.985V248.083C1302.51 247.961 1302.51 247.931 1302.35 247.931H1300.17C1300.05 247.931 1300 247.931 1300 247.769V245.99C1300 245.879 1300 245.849 1300.16 245.849H1302.32C1302.47 245.849 1302.51 245.849 1302.51 245.656V240.202C1302.51 240.04 1302.51 240 1302.71 240H1310.24C1310.78 240.022 1311.33 240.083 1311.86 240.183C1312.97 240.388 1314.03 240.787 1315.01 241.356C1315.65 241.738 1316.25 242.2 1316.77 242.732C1317.17 243.147 1317.53 243.598 1317.85 244.077C1318.16 244.563 1318.43 245.083 1318.63 245.625C1318.64 245.693 1318.68 245.754 1318.74 245.793C1318.79 245.833 1318.86 245.849 1318.93 245.838H1320.73C1320.96 245.838 1320.96 245.838 1320.97 246.06V247.72C1320.97 247.882 1320.91 247.923 1320.75 247.923H1319.36C1319.22 247.923 1319.18 247.923 1319.19 248.104C1319.25 248.721 1319.25 249.339 1319.19 249.955C1319.19 250.128 1319.19 250.147 1319.38 250.147H1320.97C1321.04 250.239 1320.97 250.33 1320.97 250.422C1320.98 250.539 1320.98 250.657 1320.97 250.775V251.999C1320.97 252.172 1320.92 252.222 1320.77 252.222H1318.87C1318.81 252.21 1318.74 252.223 1318.69 252.259C1318.63 252.295 1318.59 252.351 1318.58 252.414C1318.13 253.599 1317.4 254.659 1316.47 255.511C1316.13 255.821 1315.77 256.111 1315.4 256.38C1314.99 256.613 1314.6 256.856 1314.19 257.048C1313.43 257.392 1312.64 257.645 1311.82 257.806C1311.05 257.946 1310.26 258.01 1309.47 257.999H1302.51V257.988L1302.51 257.986Z" fill="#FEFEFD"/>
<path d="M1111.53 263.48V267.236H1110.69V266.72H1105.53V267.236H1104.69V263.48H1111.53ZM1105.53 265.94H1110.69V264.26H1105.53V265.94ZM1106.49 258.128L1107.33 258.308C1107.15 258.584 1106.97 258.848 1106.78 259.1H1111.2V259.796C1110.71 260.48 1110 261.08 1109.08 261.608C1110.39 262.124 1111.85 262.436 1113.47 262.556L1113.28 263.336C1111.36 263.192 1109.67 262.772 1108.18 262.052C1106.76 262.7 1104.98 263.204 1102.82 263.576L1102.49 262.808C1104.42 262.496 1106.03 262.1 1107.3 261.596C1106.69 261.236 1106.13 260.828 1105.61 260.372C1105.14 260.792 1104.64 261.164 1104.11 261.5L1103.56 260.828C1104.75 260.144 1105.72 259.244 1106.49 258.128ZM1108.19 261.212C1109.02 260.804 1109.68 260.336 1110.17 259.832H1106.15L1106.12 259.868C1106.75 260.396 1107.45 260.84 1108.19 261.212ZM1112.87 257.096V259.364H1112V257.876H1104V259.364H1103.13V257.096H1107.52C1107.38 256.784 1107.23 256.508 1107.08 256.256L1108.02 256.112C1108.17 256.4 1108.3 256.736 1108.44 257.096H1112.87ZM1123.59 258.524H1116.74V260.864H1123.59V258.524ZM1116.74 261.704C1116.68 263.852 1116.11 265.7 1115.03 267.248L1114.4 266.672C1115.37 265.328 1115.86 263.576 1115.88 261.428V257.672H1119.8C1119.58 257.168 1119.35 256.7 1119.1 256.268L1120.02 256.124C1120.24 256.58 1120.46 257.096 1120.67 257.672H1124.46V261.704H1116.74Z" fill="#666666"/>
<mask id="path-36-outside-5_7472_6716" maskUnits="userSpaceOnUse" x="1078" y="357" width="272" height="76" fill="black">
<rect fill="white" x="1078" y="357" width="272" height="76"/>
<path d="M1078 360C1078 358.895 1078.9 358 1080 358H1348C1349.1 358 1350 358.895 1350 360V430C1350 431.105 1349.1 432 1348 432H1080C1078.9 432 1078 431.105 1078 430V360Z"/>
</mask>
<path d="M1078 360C1078 358.343 1079.34 357 1081 357H1347C1348.66 357 1350 358.343 1350 360C1350 359.448 1349.1 359 1348 359H1080C1078.9 359 1078 359.448 1078 360ZM1350 430C1350 431.657 1348.66 433 1347 433H1081C1079.34 433 1078 431.657 1078 430C1078 430.552 1078.9 431 1080 431H1348C1349.1 431 1350 430.552 1350 430ZM1078 432V358V432ZM1350 358V432V358Z" fill="url(#paint4_linear_7472_6716)" mask="url(#path-36-outside-5_7472_6716)"/>
<path d="M1118.78 381.534C1118.78 385.314 1118.67 387.6 1118.47 388.41C1118.27 389.202 1117.46 389.616 1116.02 389.616H1115.95L1115.45 387.942C1115.81 387.96 1116.11 387.978 1116.38 387.978C1116.72 387.978 1116.94 387.78 1117.01 387.42C1117.08 387.096 1117.12 385.872 1117.14 383.766L1114.94 384.414V391.02H1113.29V384.918L1111.09 385.584V392.172C1111.09 392.676 1111.38 392.928 1111.95 392.928H1116.81C1117.1 392.928 1117.32 392.802 1117.46 392.55C1117.62 392.298 1117.73 391.506 1117.8 390.138L1119.39 390.642C1119.24 392.514 1119.01 393.648 1118.65 394.008C1118.31 394.35 1117.8 394.53 1117.14 394.53H1111.43C1110.08 394.53 1109.42 393.846 1109.42 392.514V386.088L1108.16 386.466V384.792L1109.42 384.414V380.076H1111.09V383.892L1113.29 383.226V378.24H1114.94V382.722L1118.78 381.534ZM1108.37 389.112V390.822C1106.7 391.596 1104.92 392.244 1103.01 392.784L1102.58 391.056C1103.3 390.912 1104.02 390.732 1104.72 390.534V384.54H1102.81V382.884H1104.72V378.348H1106.39V382.884H1108.12V384.54H1106.39V389.958C1107.06 389.706 1107.72 389.418 1108.37 389.112ZM1131.74 378.258H1133.45V383.856H1136.69V385.512H1133.45V392.568H1137.24V394.242H1125.8V392.568H1127.74V382.074H1129.47V392.568H1131.74V378.258ZM1126.75 389.292V391.092C1124.95 391.74 1123.02 392.28 1120.97 392.712L1120.5 390.876C1121.26 390.768 1122.03 390.624 1122.79 390.462V384.432H1120.68V382.758H1122.79V378.312H1124.52V382.758H1126.59V384.432H1124.52V390.012C1125.27 389.796 1126.01 389.562 1126.75 389.292ZM1148.17 380.148H1149.65V393H1147.68V382.506C1146.91 383.244 1145.92 383.784 1144.73 384.126V382.182C1145.31 382.038 1145.9 381.786 1146.55 381.426C1147.2 381.03 1147.74 380.616 1148.17 380.148ZM1156.74 379.896C1158.25 379.896 1159.42 380.526 1160.25 381.804C1161.01 382.992 1161.39 384.576 1161.39 386.574C1161.39 388.554 1161.01 390.156 1160.25 391.344C1159.42 392.604 1158.25 393.252 1156.74 393.252C1155.23 393.252 1154.06 392.604 1153.23 391.344C1152.48 390.156 1152.1 388.572 1152.1 386.574C1152.1 384.558 1152.48 382.974 1153.23 381.804C1154.06 380.526 1155.23 379.896 1156.74 379.896ZM1156.74 381.552C1155.68 381.552 1154.94 382.128 1154.51 383.298C1154.19 384.09 1154.04 385.188 1154.04 386.574C1154.04 387.942 1154.19 389.04 1154.51 389.85C1154.94 391.002 1155.68 391.596 1156.74 391.596C1157.79 391.596 1158.54 391.002 1158.97 389.85C1159.28 389.04 1159.44 387.942 1159.44 386.574C1159.44 385.188 1159.28 384.09 1158.97 383.298C1158.54 382.128 1157.79 381.552 1156.74 381.552ZM1167.53 379.896C1169.05 379.896 1170.22 380.526 1171.04 381.804C1171.8 382.992 1172.18 384.576 1172.18 386.574C1172.18 388.554 1171.8 390.156 1171.04 391.344C1170.22 392.604 1169.05 393.252 1167.53 393.252C1166.02 393.252 1164.85 392.604 1164.02 391.344C1163.27 390.156 1162.89 388.572 1162.89 386.574C1162.89 384.558 1163.27 382.974 1164.02 381.804C1164.85 380.526 1166.02 379.896 1167.53 379.896ZM1167.53 381.552C1166.47 381.552 1165.73 382.128 1165.3 383.298C1164.98 384.09 1164.83 385.188 1164.83 386.574C1164.83 387.942 1164.98 389.04 1165.3 389.85C1165.73 391.002 1166.47 391.596 1167.53 391.596C1168.58 391.596 1169.33 391.002 1169.77 389.85C1170.07 389.04 1170.23 387.942 1170.23 386.574C1170.23 385.188 1170.07 384.09 1169.77 383.298C1169.33 382.128 1168.58 381.552 1167.53 381.552Z" fill="black"/>
<path d="M1326 395C1326 403.837 1318.84 411 1310 411C1301.16 411 1294 403.837 1294 395C1294 386.163 1301.16 379 1310 379C1318.84 379 1326 386.163 1326 395Z" fill="#285FF6"/>
<path d="M1302 387.68C1302 387.5 1302.07 387.327 1302.18 387.199C1302.3 387.072 1302.46 387 1302.63 387H1306.8C1306.92 387 1307.02 387.106 1307.02 387.237C1307.02 388.617 1306.51 389.94 1305.61 390.916C1304.71 391.892 1303.49 392.44 1302.22 392.44C1302.16 392.44 1302.1 392.415 1302.06 392.371C1302.02 392.326 1302 392.266 1302 392.203V387.68ZM1312.67 392.44H1317.37C1317.45 392.44 1317.54 392.422 1317.61 392.388C1317.69 392.354 1317.76 392.304 1317.82 392.241C1317.87 392.178 1317.92 392.103 1317.95 392.02C1317.98 391.938 1318 391.849 1318 391.76V387.68C1318 387.591 1317.98 387.502 1317.95 387.42C1317.92 387.337 1317.87 387.262 1317.82 387.199C1317.76 387.136 1317.69 387.086 1317.61 387.052C1317.54 387.018 1317.45 387 1317.37 387H1312.04C1310.71 387 1309.43 387.573 1308.49 388.593C1307.55 389.614 1307.02 390.997 1307.02 392.44V403.32C1307.02 403.409 1307.04 403.498 1307.07 403.58C1307.1 403.663 1307.15 403.738 1307.2 403.801C1307.26 403.864 1307.33 403.914 1307.41 403.948C1307.48 403.982 1307.56 404 1307.65 404H1311.41C1311.49 404 1311.58 403.982 1311.65 403.948C1311.73 403.914 1311.8 403.864 1311.86 403.801C1311.91 403.738 1311.96 403.663 1311.99 403.58C1312.02 403.498 1312.04 403.409 1312.04 403.32V393.12C1312.04 392.94 1312.11 392.767 1312.22 392.639C1312.34 392.512 1312.5 392.44 1312.67 392.44Z" fill="white"/>
<path d="M1111.53 409.48V413.236H1110.69V412.72H1105.53V413.236H1104.69V409.48H1111.53ZM1105.53 411.94H1110.69V410.26H1105.53V411.94ZM1106.49 404.128L1107.33 404.308C1107.15 404.584 1106.97 404.848 1106.78 405.1H1111.2V405.796C1110.71 406.48 1110 407.08 1109.08 407.608C1110.39 408.124 1111.85 408.436 1113.47 408.556L1113.28 409.336C1111.36 409.192 1109.67 408.772 1108.18 408.052C1106.76 408.7 1104.98 409.204 1102.82 409.576L1102.49 408.808C1104.42 408.496 1106.03 408.1 1107.3 407.596C1106.69 407.236 1106.13 406.828 1105.61 406.372C1105.14 406.792 1104.64 407.164 1104.11 407.5L1103.56 406.828C1104.75 406.144 1105.72 405.244 1106.49 404.128ZM1108.19 407.212C1109.02 406.804 1109.68 406.336 1110.17 405.832H1106.15L1106.12 405.868C1106.75 406.396 1107.45 406.84 1108.19 407.212ZM1112.87 403.096V405.364H1112V403.876H1104V405.364H1103.13V403.096H1107.52C1107.38 402.784 1107.23 402.508 1107.08 402.256L1108.02 402.112C1108.17 402.4 1108.3 402.736 1108.44 403.096H1112.87ZM1123.59 404.524H1116.74V406.864H1123.59V404.524ZM1116.74 407.704C1116.68 409.852 1116.11 411.7 1115.03 413.248L1114.4 412.672C1115.37 411.328 1115.86 409.576 1115.88 407.428V403.672H1119.8C1119.58 403.168 1119.35 402.7 1119.1 402.268L1120.02 402.124C1120.24 402.58 1120.46 403.096 1120.67 403.672H1124.46V407.704H1116.74Z" fill="#666666"/>
<mask id="path-42-outside-6_7472_6716" maskUnits="userSpaceOnUse" x="1078" y="503" width="272" height="76" fill="black">
<rect fill="white" x="1078" y="503" width="272" height="76"/>
<path d="M1078 506C1078 504.895 1078.9 504 1080 504H1348C1349.1 504 1350 504.895 1350 506V576C1350 577.105 1349.1 578 1348 578H1080C1078.9 578 1078 577.105 1078 576V506Z"/>
</mask>
<path d="M1078 506C1078 504.343 1079.34 503 1081 503H1347C1348.66 503 1350 504.343 1350 506C1350 505.448 1349.1 505 1348 505H1080C1078.9 505 1078 505.448 1078 506ZM1350 576C1350 577.657 1348.66 579 1347 579H1081C1079.34 579 1078 577.657 1078 576C1078 576.552 1078.9 577 1080 577H1348C1349.1 577 1350 576.552 1350 576ZM1078 578V504V578ZM1350 504V578V504Z" fill="url(#paint5_linear_7472_6716)" mask="url(#path-42-outside-6_7472_6716)"/>
<path d="M1116.96 524.366L1117.8 525.806C1116.18 526.238 1114.31 526.562 1112.19 526.778V529.388H1117.77V531.044H1112.19V533.6H1119.12V535.238H1112.19V538.928C1112.19 540.116 1111.56 540.71 1110.32 540.71H1107.53L1107.13 539.054C1108.03 539.108 1108.89 539.144 1109.72 539.144C1110.23 539.144 1110.48 538.928 1110.48 538.514V535.238H1102.9V533.6H1110.48V531.044H1104.39V529.388H1110.48V526.922C1108.64 527.048 1106.68 527.12 1104.56 527.12L1104.02 525.572C1109.15 525.572 1113.47 525.158 1116.96 524.366ZM1126.46 536.804V538.424C1124.91 539.054 1123.15 539.558 1121.19 539.954L1120.99 538.28C1123.08 537.92 1124.9 537.416 1126.46 536.804ZM1123.47 524.204L1125.09 524.834C1124.32 526.922 1123.53 528.632 1122.74 529.946C1123.31 529.874 1123.89 529.784 1124.48 529.676C1124.77 529.1 1125.09 528.488 1125.42 527.858L1126.98 528.452C1125.54 531.098 1124.34 533.042 1123.37 534.266C1124.3 534.05 1125.26 533.762 1126.23 533.42V534.968C1124.5 535.544 1122.86 535.94 1121.31 536.156L1120.85 534.608C1121.15 534.5 1121.4 534.338 1121.62 534.122C1122.16 533.564 1122.83 532.592 1123.62 531.224C1122.83 531.35 1122 531.476 1121.17 531.602L1120.76 530.054C1121.01 529.946 1121.24 529.748 1121.46 529.424C1122.21 527.858 1122.9 526.112 1123.47 524.204ZM1127.7 525.266H1131.18V524.204H1132.83V525.266H1136.56V526.814H1132.83V528.056H1136.87V529.118C1136.61 530.27 1136.27 531.404 1135.86 532.52L1134.22 532.052C1134.58 531.35 1134.87 530.54 1135.12 529.64H1127.15V528.056H1131.18V526.814H1127.7V525.266ZM1126.75 534.536H1129.32C1128.5 533.834 1127.67 533.276 1126.82 532.844L1127.61 531.674C1128.57 532.142 1129.45 532.7 1130.24 533.384L1129.49 534.536H1131.61C1131.65 534.212 1131.68 533.87 1131.7 533.528V530.126H1133.36V533.528C1133.34 533.888 1133.32 534.212 1133.28 534.536H1137.32V536.12H1132.98C1132.91 536.336 1132.85 536.534 1132.78 536.714C1134.47 537.506 1136.04 538.424 1137.46 539.468L1136.51 540.944C1135.07 539.72 1133.63 538.748 1132.15 537.992C1132.08 538.118 1131.99 538.244 1131.92 538.352C1131.05 539.468 1129.63 540.332 1127.69 540.944L1126.73 539.45C1128.62 538.874 1129.9 538.136 1130.58 537.236C1130.82 536.894 1131.02 536.516 1131.2 536.12H1126.75V534.536ZM1129.02 529.856C1129.9 530.27 1130.71 530.792 1131.47 531.422L1130.67 532.628C1129.88 531.908 1129.07 531.368 1128.26 530.972L1129.02 529.856ZM1142.09 528.578L1141.83 529.46H1143.98C1144.05 529.172 1144.1 528.884 1144.14 528.578H1142.09ZM1145.79 528.578C1145.78 528.884 1145.74 529.172 1145.69 529.46H1148.13V528.578H1145.79ZM1149.79 528.578V529.46H1154.54C1154.54 530.864 1154.4 531.746 1154.11 532.124C1153.82 532.52 1153.16 532.718 1152.11 532.736C1151.82 532.736 1151.54 532.718 1151.27 532.7L1150.96 531.53C1151.28 531.566 1151.61 531.584 1151.91 531.584C1152.38 531.584 1152.67 531.512 1152.78 531.386C1152.87 531.242 1152.92 531.044 1152.92 530.756H1149.79V532.628H1148.13V530.756H1145.24C1145 531.188 1144.73 531.584 1144.41 531.908C1143.99 532.304 1143.45 532.646 1142.79 532.97H1153.07V537.974H1151.37V534.482H1143.09V537.974H1141.42V533.474C1141.06 533.582 1140.68 533.69 1140.29 533.78L1139.42 532.448C1141.24 532.052 1142.46 531.548 1143.11 530.936C1143.18 530.864 1143.24 530.792 1143.27 530.756H1140L1140.7 527.264H1144.16V526.382H1140.16V524.996H1144.16V524.204H1145.81V524.996H1148.13V524.204H1149.79V524.996H1153.61V528.578H1149.79ZM1145.81 526.382V527.264H1148.13V526.382H1145.81ZM1149.79 526.382V527.264H1152.02V526.382H1149.79ZM1148.33 537.614C1150.65 538.154 1152.78 538.802 1154.69 539.576L1153.75 540.998C1151.72 540.098 1149.63 539.414 1147.47 538.91L1148.33 537.614ZM1146.33 534.932L1148.03 535.094C1147.79 537.164 1147.25 538.532 1146.41 539.216C1145.51 540.08 1143.38 540.656 1140.03 540.908L1139.35 539.378C1142.18 539.252 1144.05 538.874 1144.95 538.226C1145.74 537.578 1146.19 536.48 1146.33 534.932ZM1172.78 527.534C1172.78 531.314 1172.67 533.6 1172.47 534.41C1172.27 535.202 1171.46 535.616 1170.02 535.616H1169.95L1169.45 533.942C1169.81 533.96 1170.11 533.978 1170.38 533.978C1170.72 533.978 1170.94 533.78 1171.01 533.42C1171.08 533.096 1171.12 531.872 1171.14 529.766L1168.94 530.414V537.02H1167.29V530.918L1165.09 531.584V538.172C1165.09 538.676 1165.38 538.928 1165.95 538.928H1170.81C1171.1 538.928 1171.32 538.802 1171.46 538.55C1171.62 538.298 1171.73 537.506 1171.8 536.138L1173.39 536.642C1173.24 538.514 1173.01 539.648 1172.65 540.008C1172.31 540.35 1171.8 540.53 1171.14 540.53H1165.43C1164.08 540.53 1163.42 539.846 1163.42 538.514V532.088L1162.16 532.466V530.792L1163.42 530.414V526.076H1165.09V529.892L1167.29 529.226V524.24H1168.94V528.722L1172.78 527.534ZM1162.37 535.112V536.822C1160.7 537.596 1158.92 538.244 1157.01 538.784L1156.58 537.056C1157.3 536.912 1158.02 536.732 1158.72 536.534V530.54H1156.81V528.884H1158.72V524.348H1160.39V528.884H1162.12V530.54H1160.39V535.958C1161.06 535.706 1161.72 535.418 1162.37 535.112ZM1185.74 524.258H1187.45V529.856H1190.69V531.512H1187.45V538.568H1191.24V540.242H1179.8V538.568H1181.74V528.074H1183.47V538.568H1185.74V524.258ZM1180.75 535.292V537.092C1178.95 537.74 1177.02 538.28 1174.97 538.712L1174.5 536.876C1175.26 536.768 1176.03 536.624 1176.79 536.462V530.432H1174.68V528.758H1176.79V524.312H1178.52V528.758H1180.59V530.432H1178.52V536.012C1179.27 535.796 1180.01 535.562 1180.75 535.292Z" fill="black"/>
<path d="M1326 539C1326 547.837 1318.84 555 1310 555C1301.16 555 1294 547.837 1294 539C1294 530.163 1301.16 523 1310 523C1318.84 523 1326 530.163 1326 539Z" fill="#285FF6"/>
<path d="M1302 531.68C1302 531.5 1302.07 531.327 1302.18 531.199C1302.3 531.072 1302.46 531 1302.63 531H1306.8C1306.92 531 1307.02 531.106 1307.02 531.237C1307.02 532.617 1306.51 533.94 1305.61 534.916C1304.71 535.892 1303.49 536.44 1302.22 536.44C1302.16 536.44 1302.1 536.415 1302.06 536.371C1302.02 536.326 1302 536.266 1302 536.203V531.68ZM1312.67 536.44H1317.37C1317.45 536.44 1317.54 536.422 1317.61 536.388C1317.69 536.354 1317.76 536.304 1317.82 536.241C1317.87 536.178 1317.92 536.103 1317.95 536.02C1317.98 535.938 1318 535.849 1318 535.76V531.68C1318 531.591 1317.98 531.502 1317.95 531.42C1317.92 531.337 1317.87 531.262 1317.82 531.199C1317.76 531.136 1317.69 531.086 1317.61 531.052C1317.54 531.018 1317.45 531 1317.37 531H1312.04C1310.71 531 1309.43 531.573 1308.49 532.593C1307.55 533.614 1307.02 534.997 1307.02 536.44V547.32C1307.02 547.409 1307.04 547.498 1307.07 547.58C1307.1 547.663 1307.15 547.738 1307.2 547.801C1307.26 547.864 1307.33 547.914 1307.41 547.948C1307.48 547.982 1307.56 548 1307.65 548H1311.41C1311.49 548 1311.58 547.982 1311.65 547.948C1311.73 547.914 1311.8 547.864 1311.86 547.801C1311.91 547.738 1311.96 547.663 1311.99 547.58C1312.02 547.498 1312.04 547.409 1312.04 547.32V537.12C1312.04 536.94 1312.11 536.767 1312.22 536.639C1312.34 536.512 1312.5 536.44 1312.67 536.44Z" fill="white"/>
<path d="M1294 523C1302.84 523 1310 530.164 1310 539C1310 547.837 1302.84 555 1294 555C1285.16 555 1278 547.836 1278 539C1278 530.164 1285.16 523 1294 523Z" fill="#F5AC37"/>
<path d="M1294.75 540.145H1300.85C1300.98 540.145 1301.05 540.145 1301.05 539.974C1301.1 539.348 1301.1 538.718 1301.05 538.092C1301.05 537.97 1300.99 537.921 1300.86 537.921H1288.72C1288.57 537.921 1288.53 537.97 1288.53 538.112V539.914C1288.53 540.146 1288.53 540.146 1288.77 540.146H1294.75V540.145ZM1300.37 535.816C1300.39 535.77 1300.39 535.72 1300.37 535.674C1300.27 535.451 1300.15 535.238 1300.01 535.037C1299.8 534.695 1299.55 534.379 1299.27 534.096C1299.13 533.925 1298.98 533.772 1298.81 533.641C1297.94 532.896 1296.9 532.369 1295.79 532.103C1295.23 531.977 1294.66 531.916 1294.09 531.921H1288.7C1288.55 531.921 1288.53 531.981 1288.53 532.113V535.704C1288.53 535.856 1288.53 535.896 1288.72 535.896H1300.3C1300.3 535.896 1300.4 535.876 1300.42 535.816H1300.37ZM1300.37 542.25C1300.2 542.231 1300.03 542.231 1299.86 542.25H1288.73C1288.58 542.25 1288.53 542.25 1288.53 542.452V545.963C1288.53 546.125 1288.53 546.166 1288.73 546.166H1293.87C1294.11 546.184 1294.36 546.167 1294.6 546.116C1295.35 546.062 1296.08 545.898 1296.78 545.63C1297.03 545.541 1297.28 545.425 1297.51 545.286H1297.58C1298.79 544.655 1299.76 543.662 1300.38 542.444C1300.38 542.444 1300.45 542.291 1300.37 542.252V542.25ZM1286.51 547.986V542.392C1286.51 542.26 1286.51 542.24 1286.35 542.24H1284.17C1284.05 542.24 1284 542.24 1284 542.078V540.156H1286.33C1286.46 540.156 1286.51 540.156 1286.51 539.985V538.083C1286.51 537.961 1286.51 537.931 1286.35 537.931H1284.17C1284.05 537.931 1284 537.931 1284 537.769V535.99C1284 535.879 1284 535.849 1284.16 535.849H1286.32C1286.47 535.849 1286.51 535.849 1286.51 535.656V530.202C1286.51 530.04 1286.51 530 1286.71 530H1294.24C1294.78 530.022 1295.33 530.083 1295.86 530.183C1296.97 530.388 1298.03 530.787 1299.01 531.356C1299.65 531.738 1300.25 532.2 1300.77 532.732C1301.17 533.147 1301.53 533.598 1301.85 534.077C1302.16 534.563 1302.43 535.083 1302.63 535.625C1302.64 535.693 1302.68 535.754 1302.74 535.793C1302.79 535.833 1302.86 535.849 1302.93 535.838H1304.73C1304.96 535.838 1304.96 535.838 1304.97 536.06V537.72C1304.97 537.882 1304.91 537.923 1304.75 537.923H1303.36C1303.22 537.923 1303.18 537.923 1303.19 538.104C1303.25 538.721 1303.25 539.339 1303.19 539.955C1303.19 540.128 1303.19 540.147 1303.38 540.147H1304.97C1305.04 540.239 1304.97 540.33 1304.97 540.422C1304.98 540.539 1304.98 540.657 1304.97 540.775V541.999C1304.97 542.172 1304.92 542.222 1304.77 542.222H1302.87C1302.81 542.21 1302.74 542.223 1302.69 542.259C1302.63 542.295 1302.59 542.351 1302.58 542.414C1302.13 543.599 1301.4 544.659 1300.47 545.511C1300.13 545.821 1299.77 546.111 1299.4 546.38C1298.99 546.613 1298.6 546.856 1298.19 547.048C1297.43 547.392 1296.64 547.645 1295.82 547.806C1295.05 547.946 1294.26 548.01 1293.47 547.999H1286.51V547.988L1286.51 547.986Z" fill="#FEFEFD"/>
<path d="M1262 539C1262 547.83 1269.17 555 1278 555C1286.83 555 1294 547.83 1294 539C1294 530.17 1286.83 523 1278 523C1269.17 523 1262 530.17 1262 539Z" fill="#2775C9"/>
<path d="M1277.04 532.746V531.686C1277.04 531.122 1277.46 530.673 1278 530.673C1278.54 530.673 1278.96 531.122 1278.96 531.686V532.736C1280.7 533.005 1281.88 534.054 1282.2 535.536C1282.27 535.863 1282.09 536.18 1281.78 536.259C1281.74 536.269 1281.69 536.269 1281.65 536.269H1281.12C1280.71 536.269 1280.33 536.011 1280.15 535.615C1279.82 534.872 1279.02 534.444 1277.98 534.444C1276.67 534.444 1275.8 535.12 1275.8 536.132C1275.8 536.944 1276.38 537.414 1277.8 537.772L1279.14 538.099C1281.48 538.664 1282.48 539.687 1282.48 541.507C1282.48 543.521 1281.14 544.882 1278.95 545.209V546.422C1278.95 546.987 1278.53 547.435 1277.99 547.435C1277.46 547.435 1277.03 546.987 1277.03 546.422V545.22C1275.09 544.972 1273.78 543.891 1273.48 542.24C1273.43 541.971 1273.6 541.702 1273.86 541.654C1273.89 541.644 1273.92 541.644 1273.95 541.644H1274.74C1275.09 541.644 1275.43 541.86 1275.57 542.198C1275.94 543.01 1276.87 543.5 1278.03 543.5C1279.43 543.5 1280.4 542.767 1280.4 541.754C1280.4 540.879 1279.81 540.373 1278.35 539.998L1276.85 539.629C1274.71 539.112 1273.7 538.031 1273.7 536.285C1273.7 534.423 1275.04 533.073 1277.04 532.746ZM1266 539.012C1266 533.432 1269.45 528.695 1274.24 527.029C1274.54 526.929 1274.88 527.097 1274.97 527.414C1274.99 527.472 1275 527.535 1275 527.604V527.962C1275 528.5 1274.69 528.996 1274.21 529.202C1270.53 530.779 1267.93 534.571 1267.93 539.012C1267.93 543.448 1270.51 547.25 1274.19 548.811C1274.67 549.012 1274.99 549.508 1274.99 550.061V550.352C1274.99 550.71 1274.72 550.995 1274.39 550.995C1274.32 550.995 1274.25 550.984 1274.19 550.963C1269.43 549.307 1266 544.581 1266 539.012ZM1290 539.012C1290 544.571 1286.59 549.286 1281.84 550.963C1281.51 551.085 1281.15 550.895 1281.03 550.547C1281.01 550.478 1281 550.399 1281 550.33V550.093C1281 549.529 1281.32 549.022 1281.81 548.811C1285.48 547.234 1288.07 543.442 1288.07 539.012C1288.07 534.592 1285.49 530.8 1281.82 529.223C1281.32 529.007 1281 528.49 1281 527.931V527.714C1281 527.345 1281.29 527.039 1281.64 527.039C1281.71 527.039 1281.78 527.05 1281.84 527.071C1286.58 528.748 1290 533.463 1290 539.012Z" fill="white"/>
<path d="M1238 539C1238 541.101 1238.41 543.182 1239.22 545.123C1240.02 547.064 1241.2 548.828 1242.69 550.314C1244.17 551.799 1245.94 552.978 1247.88 553.782C1249.82 554.586 1251.9 555 1254 555C1256.1 555 1258.18 554.586 1260.12 553.782C1262.06 552.978 1263.83 551.799 1265.31 550.314C1266.8 548.828 1267.98 547.064 1268.78 545.123C1269.59 543.182 1270 541.101 1270 539C1270 536.899 1269.59 534.818 1268.78 532.877C1267.98 530.936 1266.8 529.172 1265.31 527.686C1263.83 526.201 1262.06 525.022 1260.12 524.218C1258.18 523.414 1256.1 523 1254 523C1251.9 523 1249.82 523.414 1247.88 524.218C1245.94 525.022 1244.17 526.201 1242.69 527.686C1241.2 529.172 1240.02 530.936 1239.22 532.877C1238.41 534.818 1238 536.899 1238 539Z" fill="#26A17B"/>
<path d="M1262 538.236C1262 536.926 1258.98 536.159 1255.59 535.977V534.373H1260.33V531H1247.67V534.373H1252.41V535.977C1249.02 536.159 1246 536.927 1246 538.236C1246 539.546 1249.02 540.313 1252.41 540.495V547H1255.59V540.496C1258.98 540.314 1262 539.546 1262 538.236ZM1255.59 539.935V539.928C1255.07 539.961 1254.53 539.973 1254 539.973C1253.47 539.973 1252.93 539.961 1252.41 539.928V539.935C1248.73 539.737 1246.53 538.876 1246.53 538.236C1246.53 537.597 1248.73 536.736 1252.41 536.538V539.365C1252.92 539.399 1253.45 539.41 1254 539.41C1254.56 539.41 1255.09 539.399 1255.59 539.365V536.538C1259.27 536.736 1261.47 537.597 1261.47 538.236C1261.47 538.876 1259.27 539.737 1255.59 539.935Z" fill="white"/>
<path d="M1102.86 549.432H1106.69C1107.48 549.432 1108.12 549.624 1108.59 550.008C1109.04 550.392 1109.27 550.92 1109.27 551.592C1109.27 552.072 1109.14 552.492 1108.89 552.84C1108.62 553.152 1108.28 553.38 1107.84 553.524C1108.41 553.62 1108.84 553.86 1109.15 554.22C1109.46 554.58 1109.63 555.036 1109.63 555.612C1109.63 556.452 1109.33 557.076 1108.74 557.484C1108.24 557.82 1107.54 558 1106.67 558H1102.86V549.432ZM1103.85 550.26V553.176H1106.45C1107.05 553.176 1107.51 553.044 1107.82 552.804C1108.13 552.552 1108.3 552.18 1108.3 551.688C1108.3 551.208 1108.14 550.848 1107.83 550.608C1107.52 550.368 1107.06 550.26 1106.46 550.26H1103.85ZM1103.85 553.992V557.172H1106.58C1107.18 557.172 1107.65 557.052 1108.01 556.836C1108.43 556.572 1108.65 556.152 1108.65 555.6C1108.65 555.048 1108.46 554.64 1108.1 554.376C1107.75 554.112 1107.24 553.992 1106.58 553.992H1103.85ZM1111.06 549.264H1112.01V558H1111.06V549.264ZM1116.46 551.628C1117.39 551.628 1118.13 551.94 1118.68 552.588C1119.21 553.2 1119.47 553.968 1119.47 554.904C1119.47 555.828 1119.21 556.596 1118.69 557.196C1118.13 557.844 1117.39 558.168 1116.46 558.168C1115.53 558.168 1114.79 557.844 1114.24 557.196C1113.71 556.596 1113.45 555.828 1113.45 554.904C1113.45 553.968 1113.71 553.2 1114.24 552.588C1114.79 551.94 1115.53 551.628 1116.46 551.628ZM1116.46 552.432C1115.8 552.432 1115.29 552.684 1114.93 553.188C1114.59 553.644 1114.43 554.208 1114.43 554.904C1114.43 555.588 1114.59 556.152 1114.93 556.608C1115.29 557.112 1115.8 557.364 1116.46 557.364C1117.11 557.364 1117.63 557.112 1118.01 556.608C1118.33 556.152 1118.5 555.576 1118.5 554.904C1118.5 554.208 1118.33 553.644 1118.01 553.188C1117.63 552.684 1117.11 552.432 1116.46 552.432ZM1123.4 551.628C1124.16 551.628 1124.78 551.808 1125.24 552.168C1125.72 552.54 1126.01 553.104 1126.12 553.86H1125.17C1125.09 553.38 1124.9 553.02 1124.6 552.78C1124.28 552.54 1123.89 552.432 1123.4 552.432C1122.8 552.432 1122.32 552.66 1121.97 553.116C1121.63 553.56 1121.46 554.16 1121.46 554.916C1121.46 555.672 1121.62 556.272 1121.96 556.704C1122.28 557.136 1122.76 557.364 1123.38 557.364C1124.44 557.364 1125.05 556.824 1125.2 555.756H1126.16C1126.01 556.548 1125.71 557.16 1125.23 557.568C1124.76 557.964 1124.15 558.168 1123.38 558.168C1122.45 558.168 1121.73 557.856 1121.21 557.232C1120.72 556.644 1120.48 555.876 1120.48 554.928C1120.48 553.98 1120.72 553.212 1121.21 552.612C1121.74 551.952 1122.47 551.628 1123.4 551.628ZM1127.28 549.264H1128.24V554.676L1131.35 551.796H1132.62L1129.89 554.292L1132.89 558H1131.65L1129.23 554.916L1128.24 555.804V558H1127.28V549.264ZM1136.26 549.432H1137.4L1140.77 558H1139.71L1138.79 555.6H1134.86L1133.95 558H1132.89L1136.26 549.432ZM1135.17 554.772H1138.48L1136.86 550.488H1136.81L1135.17 554.772ZM1140.98 549.432H1148V550.284H1144.98V558H1144.01V550.284H1140.98V549.432ZM1149.07 549.432H1150.3L1153.49 556.74H1153.52L1156.7 549.432H1157.93V558H1156.94V551.184H1156.91L1153.94 558H1153.06L1150.09 551.184H1150.06V558H1149.07V549.432Z" fill="#666666"/>
<rect x="1" y="183" width="134" height="62" rx="3" stroke="#D0D9DF" stroke-width="2"/>
<path d="M57.26 207.648H66.53V209.448H59.366V213.012H66.098V214.812H59.366V218.7H66.836V220.5H57.26V207.648ZM68.0528 211.194H70.4468L72.3908 214.038L74.3168 211.194H76.7108L73.5068 215.55L77.1248 220.5H74.7128L72.3908 217.062L70.0508 220.5H67.6388L71.2568 215.55L68.0528 211.194ZM82.4728 210.942C83.6788 210.942 84.6328 211.212 85.3528 211.752C86.0908 212.328 86.5588 213.192 86.7388 214.362H84.7048C84.5788 213.768 84.3268 213.336 83.9668 213.048C83.5888 212.76 83.0848 212.616 82.4728 212.616C81.7168 212.616 81.1228 212.886 80.6908 213.462C80.2588 214.02 80.0428 214.812 80.0428 215.82C80.0428 216.846 80.2408 217.656 80.6728 218.232C81.0688 218.79 81.6628 219.078 82.4548 219.078C83.8228 219.078 84.5788 218.394 84.7408 217.044H86.7748C86.5588 218.304 86.0728 219.24 85.3348 219.852C84.6148 220.446 83.6428 220.752 82.4368 220.752C80.9968 220.752 79.8808 220.284 79.0888 219.348C78.3148 218.448 77.9368 217.278 77.9368 215.838C77.9368 214.434 78.3148 213.282 79.0708 212.4C79.8808 211.428 81.0148 210.942 82.4728 210.942ZM92.3466 210.942C93.8766 210.942 95.0466 211.446 95.8566 212.49C96.5946 213.426 96.9726 214.74 96.9726 216.414H90.0066C90.0786 217.278 90.3126 217.944 90.7086 218.394C91.1046 218.844 91.6806 219.078 92.4186 219.078C93.0486 219.078 93.5526 218.934 93.9486 218.646C94.2546 218.412 94.5246 218.034 94.7766 217.512H96.8286C96.6126 218.376 96.1806 219.114 95.5326 219.69C94.7046 220.392 93.6786 220.752 92.4366 220.752C91.0506 220.752 89.9526 220.32 89.1426 219.474C88.2786 218.592 87.8466 217.386 87.8466 215.838C87.8466 214.452 88.2426 213.3 89.0706 212.364C89.8626 211.41 90.9606 210.942 92.3466 210.942ZM92.4006 212.616C91.7166 212.616 91.1946 212.796 90.7986 213.192C90.4206 213.57 90.1686 214.128 90.0426 214.866H94.8306C94.6506 213.354 93.8406 212.616 92.4006 212.616ZM98.7795 207.396H100.832V220.5H98.7795V207.396Z" fill="black"/>
<path d="M34.5713 202.461C34.5713 201.192 33.4045 200.244 32.1622 200.503L21.5909 202.713C20.664 202.907 20 203.724 20 204.671V223.329C20 224.276 20.664 225.093 21.5908 225.287L32.1621 227.496C33.4044 227.756 34.5713 226.808 34.5713 225.539V202.461ZM27.1037 214.904L25.5901 218.349L23.8435 218.221L26.0543 214.009L24.0765 209.42L25.8217 209.292L26.9493 212.625C26.9715 212.69 27.0331 212.734 27.1024 212.734V212.734C27.1714 212.734 27.2327 212.691 27.2553 212.626L28.4986 209.036L30.361 208.91L28.033 213.755L30.3624 218.73L28.5 218.602L27.1037 214.904Z" fill="#23B08D"/>
<path d="M34.5723 203.5H42.0008C43.1053 203.5 44.0008 204.395 44.0008 205.5V223.375C44.0008 224.48 43.1053 225.375 42.0008 225.375H34.5723V203.5Z" fill="#E5E7E6"/>
<path d="M34.5723 208.75H41.4293V210.822H34.5723V208.75ZM34.5723 213.114H41.4293V215.186H34.5723V213.114ZM34.5723 218.053H41.4293V220.125H34.5723V218.053Z" fill="white"/>
<rect x="1" y="350" width="134" height="62" rx="3" stroke="#D0D9DF" stroke-width="2"/>
<path d="M60.95 374.648H63.182L68.132 387.5H66.026L64.82 384.188H59.294L58.088 387.5H56L60.95 374.648ZM59.888 382.568H64.226L62.102 376.754H62.03L59.888 382.568ZM69.3889 374.648H74.7169C77.7769 374.648 79.3069 375.944 79.3069 378.554C79.3069 381.182 77.7589 382.496 74.6809 382.496H71.3509V387.5H69.3889V374.648ZM71.3509 376.322V380.822H74.5549C75.5269 380.822 76.2289 380.642 76.6789 380.282C77.1109 379.922 77.3449 379.346 77.3449 378.554C77.3449 377.762 77.1109 377.186 76.6609 376.862C76.2109 376.502 75.5089 376.322 74.5549 376.322H71.3509ZM81.1671 374.648H83.1111V387.5H81.1671V374.648Z" fill="black"/>
<path d="M43.2001 367.667C44.4001 367.667 45.3334 368.6 45.3334 369.8V392.2C45.3334 393.4 44.4001 394.333 43.2001 394.333H20.8001C19.6001 394.333 18.6667 393.4 18.6667 392.2V369.8C18.6667 368.6 19.6001 367.667 20.8001 367.667H43.2001ZM24.4001 371.8C24.1334 371.533 23.7334 371.533 23.3334 371.533C22.9334 371.667 22.6667 371.933 22.5334 372.333C22.4001 372.733 22.5334 373.133 22.8001 373.4L26.2667 376.867L22.8001 380.333C22.5334 380.6 22.4001 381.133 22.5334 381.533C22.6667 381.933 23.0667 382.2 23.6001 382.2C23.8667 382.2 24.1334 382.067 24.4001 381.933L28.5334 377.8C28.8001 377.533 28.8001 377.267 28.8001 377C28.8001 376.733 28.6667 376.467 28.5334 376.2L24.4001 371.8ZM35.2001 379.933H29.2001C28.6667 379.933 28.1334 380.467 28.1334 381C28.1334 381.533 28.6667 382.067 29.2001 382.067H35.2001C35.7334 382.067 36.2667 381.533 36.2667 381C36.2667 380.467 35.7334 379.933 35.2001 379.933Z" fill="#4070FF"/>
<line x1="136" y1="221" x2="160" y2="221" stroke="#D0D9DF" stroke-width="2"/>
<line x1="136" y1="388" x2="160" y2="388" stroke="#D0D9DF" stroke-width="2"/>
<line x1="159" y1="305" x2="159" y2="389" stroke="#D0D9DF" stroke-width="2"/>
<line x1="159" y1="221" x2="159" y2="305" stroke="#D0D9DF" stroke-width="2"/>
<line x1="426" y1="304" x2="478" y2="304" stroke="#D0D9DF" stroke-width="2"/>
<line x1="690" y1="304" x2="746" y2="304" stroke="#D0D9DF" stroke-width="2"/>
<line x1="990" y1="304" x2="1046" y2="304" stroke="#D0D9DF" stroke-width="2"/>
<line x1="1382" y1="304" x2="1438" y2="304" stroke="#D0D9DF" stroke-width="2"/>
<line x1="158" y1="304" x2="214" y2="304" stroke="#D0D9DF" stroke-width="2"/>
<rect x="478" y="245" width="180" height="120" rx="4" fill="#1B6BD9" fill-opacity="0.05"/>
<path d="M536.754 321.908L536.908 322.874L532.288 323.462C532.372 324.358 532.484 325.128 532.624 325.772C532.96 327.228 533.422 328.348 534.024 329.16C534.57 329.916 535.088 330.294 535.564 330.308C535.942 330.294 536.222 329.398 536.418 327.634L537.3 328.138C537.118 329.286 536.88 330.14 536.572 330.7C536.32 331.106 535.998 331.316 535.62 331.33C534.934 331.33 534.22 330.882 533.492 330C532.694 329.02 532.106 327.746 531.714 326.178C531.532 325.478 531.392 324.624 531.294 323.588L528.256 323.98L528.102 323.014L531.21 322.608C531.112 321.432 531.056 320.074 531.042 318.534H532.078C532.078 320.032 532.12 321.348 532.204 322.482L536.754 321.908ZM526.352 323.546C525.876 324.19 525.344 324.792 524.784 325.38L524.462 324.33C526.002 322.636 527.108 320.69 527.808 318.506L528.746 318.954C528.382 320.018 527.934 321.026 527.388 321.964V331.428H526.352V323.546ZM533.604 318.632C534.458 319.346 535.186 320.06 535.774 320.76L535.074 321.446C534.57 320.76 533.856 320.032 532.96 319.262L533.604 318.632ZM541.71 318.436L542.648 318.884C542.34 319.864 541.948 320.774 541.5 321.642V331.428H540.492V323.308C539.988 324.05 539.414 324.75 538.784 325.422L538.476 324.372C539.96 322.65 541.038 320.676 541.71 318.436ZM542.942 321.6H548.304V318.59H549.312V321.6H551.328V322.58H549.312V329.888C549.312 330.84 548.864 331.316 547.996 331.316H545.966L545.742 330.322C546.4 330.364 547.03 330.392 547.646 330.392C548.08 330.392 548.304 330.14 548.304 329.636V322.58H542.942V321.6ZM544.23 324.106C545.294 325.366 546.12 326.472 546.694 327.41L545.84 328.012C545.238 326.99 544.426 325.856 543.404 324.61L544.23 324.106ZM561.94 319.808C563.186 319.808 564.18 320.102 564.922 320.718C565.622 321.292 566.056 322.118 566.238 323.21H565.09C564.936 322.454 564.6 321.88 564.082 321.474C563.536 321.04 562.822 320.83 561.94 320.83C560.848 320.83 559.994 321.208 559.35 321.978C558.706 322.734 558.398 323.756 558.398 325.044C558.398 326.304 558.706 327.298 559.322 328.026C559.98 328.796 560.96 329.188 562.262 329.188C562.808 329.188 563.326 329.104 563.83 328.964C564.32 328.824 564.74 328.628 565.09 328.404V325.856H561.954V324.862H566.224V328.95C565.748 329.342 565.16 329.636 564.474 329.86C563.746 330.084 562.976 330.196 562.15 330.196C560.568 330.196 559.336 329.692 558.468 328.684C557.656 327.746 557.25 326.528 557.25 325.044C557.25 323.56 557.642 322.342 558.454 321.376C559.308 320.326 560.47 319.808 561.94 319.808ZM571.153 322.566C572.189 322.566 572.945 322.832 573.449 323.378C573.869 323.854 574.093 324.512 574.093 325.352V330H573.043V328.782C572.763 329.174 572.385 329.496 571.937 329.748C571.405 330.042 570.803 330.196 570.131 330.196C569.403 330.196 568.829 330.014 568.395 329.65C567.947 329.272 567.723 328.782 567.723 328.194C567.723 327.368 568.045 326.752 568.717 326.332C569.305 325.94 570.145 325.73 571.237 325.716L572.973 325.688V325.31C572.973 324.092 572.343 323.49 571.083 323.49C570.551 323.49 570.117 323.588 569.781 323.812C569.403 324.036 569.165 324.386 569.053 324.848L567.947 324.764C568.101 324.008 568.479 323.434 569.067 323.07C569.599 322.734 570.285 322.566 571.153 322.566ZM572.973 326.528L571.307 326.556C569.683 326.584 568.871 327.116 568.871 328.166C568.871 328.502 568.997 328.768 569.277 328.992C569.557 329.202 569.921 329.314 570.369 329.314C571.055 329.314 571.657 329.09 572.189 328.642C572.707 328.208 572.973 327.704 572.973 327.144V326.528ZM578.385 322.566C580.177 322.566 581.157 323.308 581.353 324.82H580.261C580.163 324.372 579.981 324.036 579.701 323.84C579.393 323.616 578.945 323.504 578.371 323.504C577.867 323.504 577.475 323.588 577.195 323.784C576.887 323.966 576.733 324.218 576.733 324.54C576.733 324.848 576.929 325.114 577.349 325.324C577.615 325.45 578.119 325.604 578.847 325.8C579.715 326.01 580.331 326.234 580.709 326.472C581.283 326.836 581.577 327.326 581.577 327.956C581.577 329.44 580.555 330.196 578.511 330.196C576.607 330.196 575.571 329.356 575.403 327.69H576.495C576.579 328.264 576.789 328.67 577.097 328.922C577.405 329.146 577.867 329.258 578.483 329.258C579.771 329.258 580.429 328.838 580.429 328.026C580.429 327.62 580.191 327.312 579.743 327.088C579.505 326.976 578.987 326.822 578.203 326.626C577.349 326.416 576.747 326.206 576.411 325.982C575.851 325.646 575.585 325.184 575.585 324.568C575.585 323.952 575.851 323.476 576.397 323.112C576.901 322.748 577.573 322.566 578.385 322.566ZM587.694 320.004H594.386V320.998H588.842V324.358H594.092V325.352H588.842V330H587.694V320.004ZM598.616 322.566C599.778 322.566 600.66 322.958 601.248 323.742C601.78 324.442 602.06 325.436 602.088 326.696H596.376C596.432 327.508 596.642 328.138 597.034 328.586C597.426 329.034 597.972 329.258 598.658 329.258C599.246 329.258 599.736 329.104 600.1 328.81C600.408 328.558 600.646 328.18 600.828 327.676H601.948C601.78 328.376 601.458 328.936 600.968 329.384C600.366 329.916 599.596 330.196 598.658 330.196C597.622 330.196 596.782 329.846 596.166 329.174C595.522 328.474 595.214 327.55 595.214 326.374C595.214 325.31 595.508 324.414 596.124 323.7C596.74 322.944 597.566 322.566 598.616 322.566ZM598.644 323.504C598 323.504 597.482 323.714 597.09 324.134C596.698 324.554 596.474 325.114 596.404 325.828H600.926C600.786 324.274 600.016 323.504 598.644 323.504ZM606.381 322.566C607.543 322.566 608.425 322.958 609.013 323.742C609.545 324.442 609.825 325.436 609.853 326.696H604.141C604.197 327.508 604.407 328.138 604.799 328.586C605.191 329.034 605.737 329.258 606.423 329.258C607.011 329.258 607.501 329.104 607.865 328.81C608.173 328.558 608.411 328.18 608.593 327.676H609.713C609.545 328.376 609.223 328.936 608.733 329.384C608.131 329.916 607.361 330.196 606.423 330.196C605.387 330.196 604.547 329.846 603.931 329.174C603.287 328.474 602.979 327.55 602.979 326.374C602.979 325.31 603.273 324.414 603.889 323.7C604.505 322.944 605.331 322.566 606.381 322.566ZM606.409 323.504C605.765 323.504 605.247 323.714 604.855 324.134C604.463 324.554 604.239 325.114 604.169 325.828H608.691C608.551 324.274 607.781 323.504 606.409 323.504Z" fill="#333333"/>
<path d="M533.61 276.825C534.163 276.825 534.61 277.273 534.61 277.825V293.175C534.61 293.727 534.163 294.175 533.61 294.175H522.387C521.834 294.175 521.387 293.727 521.387 293.175V280.01L524.732 276.825H533.61ZM535.997 277.5C535.997 276.395 535.102 275.5 533.997 275.5H524.56C524.303 275.5 524.056 275.599 523.87 275.776L520.311 279.163C520.112 279.352 520 279.614 520 279.888V293.5C520 294.605 520.895 295.5 522 295.5H533.997C535.102 295.5 535.997 294.605 535.997 293.5V277.5Z" fill="#1B6BD9"/>
<path d="M525.107 285.567C524.917 285.798 524.633 285.933 524.333 285.933H520.629V284.635H523.713C524.013 284.635 524.297 284.5 524.486 284.268L526.014 282.405C526.204 282.173 526.488 282.038 526.787 282.038H529.332V283.337H527.408C527.108 283.337 526.824 283.471 526.634 283.703L525.107 285.567ZM520.629 289.202H527.543V290.5H520.629V289.202ZM524.472 279.447C524.472 279.723 524.249 279.947 523.972 279.947H520L524.472 275.5V279.447Z" fill="#1B6BD9"/>
<path d="M527.74 282.385C527.74 282.631 527.792 282.875 527.892 283.102C527.993 283.33 528.14 283.536 528.326 283.711C528.512 283.885 528.732 284.023 528.975 284.117C529.217 284.211 529.477 284.26 529.74 284.26C530.002 284.26 530.262 284.211 530.505 284.117C530.748 284.023 530.968 283.885 531.154 283.711C531.34 283.536 531.487 283.33 531.587 283.102C531.688 282.875 531.74 282.631 531.74 282.385C531.74 282.139 531.688 281.895 531.587 281.667C531.487 281.44 531.34 281.233 531.154 281.059C530.968 280.885 530.748 280.747 530.505 280.652C530.262 280.558 530.002 280.51 529.74 280.51C529.477 280.51 529.217 280.558 528.975 280.652C528.732 280.747 528.512 280.885 528.326 281.059C528.14 281.233 527.993 281.44 527.892 281.667C527.792 281.895 527.74 282.139 527.74 282.385Z" fill="#1B6BD9"/>
<path d="M526.666 289.875C526.666 290.121 526.717 290.365 526.818 290.593C526.918 290.82 527.066 291.027 527.251 291.201C527.437 291.375 527.657 291.513 527.9 291.607C528.143 291.702 528.403 291.75 528.665 291.75C528.928 291.75 529.188 291.702 529.43 291.607C529.673 291.513 529.893 291.375 530.079 291.201C530.265 291.027 530.412 290.82 530.513 290.593C530.613 290.365 530.665 290.121 530.665 289.875C530.665 289.629 530.613 289.385 530.513 289.157C530.412 288.93 530.265 288.723 530.079 288.549C529.893 288.375 529.673 288.237 529.43 288.143C529.188 288.048 528.928 288 528.665 288C528.403 288 528.143 288.048 527.9 288.143C527.657 288.237 527.437 288.375 527.251 288.549C527.066 288.723 526.918 288.93 526.818 289.157C526.717 289.385 526.666 289.629 526.666 289.875Z" fill="#1B6BD9"/>
<path d="M560.413 281.362L560.683 282.982L554.869 283.756C554.977 284.728 555.103 285.592 555.247 286.312C555.661 288.184 556.219 289.624 556.921 290.614C557.569 291.55 558.199 292.036 558.775 292.072C559.189 292.036 559.513 290.956 559.729 288.796L561.223 289.66C560.971 291.136 560.629 292.234 560.233 292.954C559.873 293.494 559.423 293.782 558.865 293.8C557.965 293.8 557.029 293.224 556.075 292.072C555.031 290.812 554.239 289.156 553.717 287.122C553.501 286.276 553.321 285.232 553.195 283.99L549.451 284.494L549.181 282.874L553.051 282.352C552.943 280.84 552.871 279.112 552.853 277.204H554.581C554.581 279.04 554.635 280.678 554.743 282.118L560.413 281.362ZM546.823 284.278C546.283 284.944 545.707 285.592 545.095 286.222L544.555 284.44C546.427 282.352 547.795 279.922 548.659 277.15L550.261 277.906C549.811 279.256 549.235 280.534 548.551 281.722V293.89H546.823V284.278ZM556.507 277.276C557.587 278.176 558.487 279.058 559.243 279.958L558.073 281.11C557.443 280.246 556.561 279.328 555.409 278.338L556.507 277.276ZM569.323 277.852H578.431V286.456H574.741V288.256H578.665V289.84H574.741V291.712H579.295V293.35H568.405V291.712H573.049V289.84H569.107V288.256H573.049V286.456H569.323V277.852ZM576.793 284.944V282.892H574.741V284.944H576.793ZM573.049 284.944V282.892H570.961V284.944H573.049ZM570.961 281.416H573.049V279.364H570.961V281.416ZM574.741 279.364V281.416H576.793V279.364H574.741ZM563.113 283.774H564.895V279.922H562.843V278.302H568.657V279.922H566.623V283.774H568.441V285.412H566.623V289.012C567.235 288.796 567.829 288.58 568.405 288.328V289.984C566.749 290.632 564.985 291.19 563.095 291.64L562.681 290.002C563.437 289.876 564.175 289.714 564.895 289.534V285.412H563.113V283.774ZM588.367 277.204H589.627C591.895 279.76 594.487 281.776 597.439 283.252L596.521 284.89C595.531 284.35 594.595 283.774 593.731 283.162V284.44H584.263V283.126C583.363 283.774 582.409 284.368 581.401 284.926L580.501 283.27C583.651 281.65 586.279 279.616 588.367 277.204ZM584.713 282.802H593.245C591.661 281.614 590.239 280.264 588.997 278.752C587.791 280.228 586.369 281.578 584.713 282.802ZM594.865 286.366V293.836H593.209V292.864H584.785V293.836H583.129V286.366H594.865ZM584.785 291.244H593.209V287.968H584.785V291.244ZM608.365 284.548C609.643 286.06 610.615 287.374 611.299 288.508L609.841 289.516C609.139 288.292 608.167 286.924 606.943 285.43L608.365 284.548ZM608.167 277.204L609.895 277.42C609.697 278.32 609.445 279.184 609.139 280.012H614.647C614.647 286.384 614.557 290.326 614.377 291.838C614.179 293.152 613.279 293.818 611.695 293.818C611.245 293.818 610.471 293.782 609.373 293.728L608.941 292.144C609.895 292.198 610.723 292.234 611.407 292.234C612.199 292.234 612.649 291.838 612.775 291.046C612.883 290.11 612.937 287.014 612.973 281.722H608.419C607.807 282.964 607.051 284.08 606.187 285.07L605.107 283.648C606.619 281.884 607.627 279.742 608.167 277.204ZM605.557 290.02V291.748C603.685 292.36 601.543 292.864 599.149 293.242L598.933 291.55C601.471 291.154 603.685 290.65 605.557 290.02ZM601.687 277.15L603.343 277.798C602.515 279.958 601.687 281.722 600.823 283.072C601.489 283 602.155 282.892 602.839 282.766C603.199 282.082 603.577 281.362 603.973 280.588L605.629 281.2C604.009 284.134 602.641 286.276 601.525 287.626C602.785 287.374 604.045 287.05 605.341 286.618V288.148C603.271 288.814 601.309 289.264 599.455 289.498L599.005 287.932C599.311 287.788 599.563 287.626 599.779 287.428C600.355 286.816 601.075 285.808 601.939 284.368L599.221 284.818L598.789 283.216C599.059 283.108 599.311 282.874 599.527 282.55C600.355 280.93 601.075 279.13 601.687 277.15Z" fill="black"/>
<rect x="246" y="245" width="180" height="120" rx="4" fill="#1B6BD9" fill-opacity="0.05"/>
<path d="M310.324 322.692H314.496V321.81H315.504V322.692H319.62V323.574H315.504V324.932H321.216V325.814H318.514V327.158H320.614V328.04H318.514V330.238C318.514 331.008 318.094 331.4 317.268 331.4H315.238L315.028 330.448C315.7 330.49 316.33 330.518 316.918 330.518C317.31 330.518 317.506 330.336 317.506 330V328.04H309.596V327.158H317.506V325.814H308.77V324.932H314.496V323.574H310.324V322.692ZM311.962 328.432C312.718 329.16 313.292 329.818 313.684 330.378L312.9 330.924C312.466 330.322 311.878 329.664 311.15 328.936L311.962 328.432ZM310.828 320.438C310.492 321.082 310.1 321.684 309.666 322.216L308.798 321.67C309.61 320.704 310.212 319.64 310.59 318.492L311.542 318.702C311.43 319.01 311.332 319.304 311.22 319.584H314.804V320.438H312.438C312.802 320.928 313.096 321.376 313.32 321.796L312.41 322.132C312.13 321.544 311.78 320.984 311.388 320.438H310.828ZM316.512 320.396C316.274 320.872 316.008 321.292 315.728 321.684L314.888 321.152C315.504 320.34 315.938 319.458 316.218 318.478L317.17 318.674C317.086 318.968 316.988 319.262 316.89 319.542H320.922V320.396H318.388C318.766 320.886 319.06 321.348 319.27 321.768L318.402 322.09C318.108 321.502 317.758 320.942 317.338 320.396H316.512ZM325.458 318.478L326.34 318.884C325.612 320.424 324.45 321.796 322.826 322.986L322.532 322.02C323.876 320.984 324.842 319.808 325.458 318.478ZM325.976 321.698L326.844 322.104C326.508 322.86 326.088 323.574 325.584 324.246V331.33H324.618V325.366C324.114 325.898 323.554 326.388 322.952 326.85L322.658 325.884C324.17 324.666 325.276 323.266 325.976 321.698ZM330.694 318.534H331.66V320.06H334.81V320.97H331.66V322.72H335.384V323.644H327.04V322.72H330.694V320.97H327.572V320.06H330.694V318.534ZM327.11 325.352H332.542V324.316H333.55V325.352H335.188V326.29H333.55V329.888C333.55 330.798 333.088 331.26 332.192 331.26H330.204L329.98 330.294C330.624 330.336 331.254 330.364 331.842 330.364C332.304 330.364 332.542 330.112 332.542 329.636V326.29H327.11V325.352ZM328.762 326.836C329.546 327.634 330.148 328.334 330.568 328.922L329.784 329.482C329.336 328.838 328.734 328.11 327.978 327.326L328.762 326.836ZM346.276 326.584L347.256 326.85C346.892 328.012 346.444 329.062 345.912 329.986H348.922V330.924H337.106V329.986H344.834C345.38 329.034 345.856 327.9 346.276 326.584ZM339.584 326.752C339.99 327.508 340.354 328.39 340.676 329.37L339.766 329.608C339.486 328.712 339.122 327.858 338.674 327.046L339.584 326.752ZM342.818 326.472C343.14 327.284 343.434 328.208 343.686 329.258L342.79 329.496C342.552 328.544 342.258 327.634 341.894 326.766L342.818 326.472ZM339.374 325.128H346.64V326.024H339.374V325.128ZM338.814 320.662C338.45 321.362 338.044 322.006 337.582 322.594L336.714 322.048C337.582 320.984 338.212 319.808 338.604 318.52L339.584 318.73C339.472 319.094 339.346 319.43 339.22 319.766H342.902V320.662H340.886C341.11 321.152 341.306 321.614 341.446 322.034L340.522 322.37C340.34 321.782 340.13 321.208 339.878 320.662H338.814ZM344.708 320.662C344.456 321.152 344.19 321.614 343.896 322.034L343.042 321.488C343.7 320.592 344.176 319.612 344.47 318.52L345.436 318.73C345.324 319.094 345.212 319.43 345.1 319.766H349.188V320.662H346.962C347.27 321.194 347.508 321.684 347.69 322.16L346.766 322.496C346.514 321.866 346.234 321.25 345.926 320.662H344.708ZM342.678 322.048H343.322C345.058 323.322 347.074 324.33 349.356 325.058L348.866 325.926C346.57 325.142 344.624 324.134 343 322.874C341.516 324.05 339.556 325.058 337.12 325.912L336.644 325.044C339.052 324.232 341.068 323.238 342.678 322.048ZM354.97 330.532V331.358H353.962V326.416C353.094 326.696 352.184 326.948 351.204 327.186L350.672 326.22C353.094 325.716 355.11 325.072 356.72 324.26C356.104 323.742 355.264 323.182 354.2 322.58L355.068 322.034C356.132 322.692 356.972 323.28 357.574 323.798C359.002 322.944 360.038 321.95 360.696 320.802H355.516C354.564 321.684 353.36 322.468 351.876 323.168L351.204 322.3C353.598 321.278 355.208 320.018 356.048 318.534L357.154 318.66C356.93 319.08 356.678 319.472 356.398 319.85H361.858V320.746C360.85 322.664 359.044 324.232 356.412 325.45H362.25V331.358H361.228V330.532H354.97ZM361.228 329.552V326.388H354.97V329.552H361.228Z" fill="#333333"/>
<path d="M311.967 295.223H301.031C299.69 295.223 298.601 294.134 298.601 292.793V278.212C298.601 276.869 299.689 275.78 301.031 275.78H308.322C309.137 275.768 309.46 275.797 309.537 275.797V275.78L314.399 280.642V292.794C314.399 294.135 313.311 295.223 311.967 295.223ZM309.537 276.996V279.426C309.537 280.5 309.537 280.642 310.753 280.642H313.183L309.537 276.996ZM313.183 281.857H310.753C308.5 281.857 308.322 281.5 308.322 279.426C308.322 279.426 308.295 278.451 308.305 276.996H301.031C300.361 276.996 299.817 277.539 299.817 278.212V292.794C299.817 293.464 300.36 294.009 301.031 294.009H311.967C312.64 294.009 313.183 293.464 313.183 292.794V281.857ZM310.145 290.362H302.854C302.518 290.362 302.247 290.09 302.247 289.756C302.247 289.42 302.519 289.149 302.854 289.149H310.144C310.481 289.149 310.753 289.421 310.753 289.756C310.753 290.09 310.482 290.362 310.145 290.362ZM310.145 286.717H302.854C302.518 286.717 302.247 286.445 302.247 286.109C302.247 285.774 302.519 285.502 302.854 285.502H310.144C310.481 285.502 310.753 285.774 310.753 286.109C310.753 286.445 310.482 286.717 310.145 286.717Z" fill="#1B6BD9"/>
<path d="M329.858 278.14H340.388V279.796H336.752V291.91C336.752 293.134 336.14 293.746 334.916 293.746H332.522L332.144 292.072C332.9 292.144 333.638 292.198 334.322 292.198C334.79 292.198 335.024 291.946 335.024 291.478V279.796H329.858V278.14ZM326.132 277.366C327.284 278.266 328.274 279.148 329.084 280.03L327.914 281.218C327.194 280.39 326.204 279.49 324.926 278.536L326.132 277.366ZM323.738 282.604H327.896V290.344C328.508 289.84 329.174 289.282 329.858 288.652L330.308 290.452C329.102 291.532 327.806 292.486 326.438 293.314L325.79 291.784C326.096 291.532 326.258 291.226 326.258 290.866V284.242H323.738V282.604ZM343.592 279.94H347.228C346.724 279.166 346.202 278.464 345.644 277.852L347.066 277.168C347.678 277.834 348.254 278.572 348.794 279.4L347.714 279.94H351.35C351.926 279.04 352.412 278.086 352.826 277.078L354.482 277.672C354.086 278.5 353.636 279.256 353.132 279.94H356.408V287.662H350.846V289.084H358.046V290.704H350.846V293.926H349.154V290.704H341.954V289.084H349.154V287.662H343.592V279.94ZM354.752 286.15V284.494H350.846V286.15H354.752ZM349.154 286.15V284.494H345.248V286.15H349.154ZM345.248 283.054H349.154V281.434H345.248V283.054ZM350.846 281.434V283.054H354.752V281.434H350.846ZM366.452 286.276V286.942H369.062V286.276H366.452ZM370.718 286.276V286.942H373.274V286.276H370.718ZM373.274 285.25V284.53H370.718V285.25H373.274ZM369.062 285.25V284.53H366.452V285.25H369.062ZM366.452 287.968V288.976H364.832V283.45H369.062V282.604H364.076V281.434H369.062V280.804L367.784 279.994C368.666 279.13 369.296 278.194 369.674 277.186L371.186 277.51C371.078 277.798 370.952 278.068 370.826 278.32H376.028V279.706H372.68C372.878 280.03 373.058 280.318 373.202 280.606L371.834 281.11C371.6 280.624 371.33 280.156 371.042 279.706H370.016C369.746 280.066 369.458 280.408 369.17 280.732H370.718V281.434H373.652C373.508 281.11 373.382 280.804 373.238 280.516L374.66 280.3C374.768 280.624 374.894 281.002 375.002 281.434H375.758V282.604H370.718V283.45H374.876V288.94H373.76V289.516H376.028V290.866H373.76V292.342C373.76 293.278 373.238 293.746 372.194 293.746H370.34L370.034 292.36C370.61 292.414 371.168 292.45 371.708 292.45C371.978 292.45 372.122 292.288 372.122 291.982V290.866H367.082C368.018 291.406 368.792 291.946 369.44 292.468L368.378 293.512C367.784 292.954 366.938 292.36 365.84 291.748L366.74 290.866H364.076V289.516H372.122V288.778H373.274V287.968H370.718V288.958H369.062V287.968H366.452ZM361.376 281.398C362.312 282.028 363.122 282.676 363.77 283.324L362.69 284.386C362.114 283.792 361.304 283.144 360.278 282.442L361.376 281.398ZM361.052 284.548C361.988 285.214 362.762 285.88 363.41 286.564L362.33 287.626C361.772 286.996 360.98 286.33 359.954 285.61L361.052 284.548ZM362.276 288.346L363.662 288.886C363.05 290.578 362.366 292.18 361.61 293.656L360.098 292.972C360.926 291.46 361.664 289.93 362.276 288.346ZM362.582 279.706C362.186 280.21 361.772 280.66 361.304 281.092L359.936 280.228C361.07 279.274 361.88 278.248 362.384 277.15L363.878 277.474C363.752 277.762 363.608 278.032 363.464 278.32H367.73V279.706H365.696C365.948 280.048 366.164 280.372 366.344 280.66L364.994 281.182C364.706 280.66 364.4 280.174 364.04 279.706H362.582Z" fill="black"/>
<mask id="path-82-inside-7_7472_6716" fill="white">
<path d="M214 217C214 214.791 215.791 213 218 213H686C688.209 213 690 214.791 690 217V393C690 395.209 688.209 397 686 397H218C215.791 397 214 395.209 214 393V217Z"/>
</mask>
<g clip-path="url(#paint6_diamond_7472_6716_clip_path)" data-figma-skip-parse="true" mask="url(#path-82-inside-7_7472_6716)"><g transform="matrix(0 -0.1504 0.389078 0 452 305)"><rect x="0" y="0" width="625" height="616.843" fill="url(#paint6_diamond_7472_6716)" opacity="1" shape-rendering="crispEdges"/><rect x="0" y="0" width="625" height="616.843" transform="scale(1 -1)" fill="url(#paint6_diamond_7472_6716)" opacity="1" shape-rendering="crispEdges"/><rect x="0" y="0" width="625" height="616.843" transform="scale(-1 1)" fill="url(#paint6_diamond_7472_6716)" opacity="1" shape-rendering="crispEdges"/><rect x="0" y="0" width="625" height="616.843" transform="scale(-1)" fill="url(#paint6_diamond_7472_6716)" opacity="1" shape-rendering="crispEdges"/></g></g><path d="M218 215H686V211H218V215ZM688 217V393H692V217H688ZM686 395H218V399H686V395ZM216 393V217H212V393H216ZM218 395C216.895 395 216 394.105 216 393H212C212 396.314 214.686 399 218 399V395ZM688 393C688 394.105 687.105 395 686 395V399C689.314 399 692 396.314 692 393H688ZM686 215C687.105 215 688 215.895 688 217H692C692 213.686 689.314 211 686 211V215ZM218 211C214.686 211 212 213.686 212 217H216C216 215.895 216.895 215 218 215V211Z" data-figma-gradient-fill="{&#34;type&#34;:&#34;GRADIENT_DIAMOND&#34;,&#34;stops&#34;:[{&#34;color&#34;:{&#34;r&#34;:1.0,&#34;g&#34;:1.0,&#34;b&#34;:1.0,&#34;a&#34;:0.0},&#34;position&#34;:0.89311361312866211},{&#34;color&#34;:{&#34;r&#34;:0.81568628549575806,&#34;g&#34;:0.85098040103912354,&#34;b&#34;:0.87450981140136719,&#34;a&#34;:1.0},&#34;position&#34;:1.0}],&#34;stopsVar&#34;:[{&#34;color&#34;:{&#34;r&#34;:1.0,&#34;g&#34;:1.0,&#34;b&#34;:1.0,&#34;a&#34;:0.0},&#34;position&#34;:0.89311361312866211},{&#34;color&#34;:{&#34;r&#34;:0.81568628549575806,&#34;g&#34;:0.85098040103912354,&#34;b&#34;:0.87450981140136719,&#34;a&#34;:1.0},&#34;position&#34;:1.0}],&#34;transform&#34;:{&#34;m00&#34;:-1.5619104588252691e-13,&#34;m01&#34;:778.1564941406250,&#34;m02&#34;:62.921760559082031,&#34;m10&#34;:-300.79998779296875,&#34;m11&#34;:3.1712485285342873e-13,&#34;m12&#34;:455.39999389648438},&#34;opacity&#34;:1.0,&#34;blendMode&#34;:&#34;NORMAL&#34;,&#34;visible&#34;:true}" mask="url(#path-82-inside-7_7472_6716)"/>
<path d="M393.68 204.864H401.504C403.184 204.864 404.48 205.248 405.44 206.064C406.352 206.832 406.808 207.864 406.808 209.184C406.808 210.144 406.568 210.96 406.088 211.632C405.608 212.256 404.96 212.736 404.096 213.048C405.224 213.264 406.088 213.72 406.664 214.416C407.24 215.112 407.528 216.048 407.528 217.2C407.528 218.928 406.928 220.176 405.752 220.992C404.744 221.664 403.328 222 401.504 222H393.68V204.864ZM396.296 207.024V212.136H400.808C402.008 212.136 402.872 211.92 403.4 211.512C403.928 211.08 404.192 210.408 404.192 209.496C404.192 208.632 403.928 208.008 403.4 207.624C402.872 207.216 402.008 207.024 400.856 207.024H396.296ZM396.296 214.272V219.84H401.144C402.248 219.84 403.112 219.648 403.736 219.312C404.504 218.856 404.912 218.136 404.912 217.152C404.912 216.144 404.6 215.4 404 214.944C403.4 214.488 402.464 214.272 401.216 214.272H396.296ZM410.205 204.528H412.749V222H410.205V204.528ZM421.629 209.256C423.501 209.256 425.013 209.88 426.141 211.128C427.245 212.352 427.821 213.912 427.821 215.808C427.821 217.68 427.269 219.24 426.165 220.44C425.013 221.688 423.501 222.336 421.629 222.336C419.757 222.336 418.245 221.688 417.093 220.44C415.989 219.24 415.437 217.68 415.437 215.808C415.437 213.912 415.989 212.352 417.117 211.128C418.245 209.88 419.757 209.256 421.629 209.256ZM421.629 211.344C420.453 211.344 419.541 211.8 418.893 212.736C418.317 213.528 418.053 214.56 418.053 215.808C418.053 217.056 418.317 218.064 418.893 218.856C419.541 219.768 420.453 220.248 421.629 220.248C422.805 220.248 423.717 219.768 424.389 218.856C424.965 218.04 425.253 217.032 425.253 215.808C425.253 214.56 424.965 213.528 424.389 212.736C423.717 211.8 422.805 211.344 421.629 211.344ZM435.757 209.256C437.341 209.256 438.613 209.616 439.573 210.336C440.533 211.104 441.157 212.256 441.397 213.792H438.877C438.709 212.952 438.373 212.328 437.845 211.944C437.317 211.536 436.621 211.344 435.757 211.344C434.701 211.344 433.885 211.728 433.285 212.52C432.661 213.288 432.373 214.392 432.373 215.784C432.373 217.176 432.661 218.28 433.261 219.072C433.813 219.84 434.629 220.248 435.733 220.248C437.629 220.248 438.685 219.288 438.925 217.416H441.445C441.157 219.072 440.509 220.32 439.549 221.136C438.589 221.928 437.293 222.336 435.709 222.336C433.813 222.336 432.349 221.712 431.293 220.464C430.261 219.264 429.757 217.728 429.757 215.808C429.757 213.936 430.261 212.4 431.269 211.2C432.349 209.904 433.837 209.256 435.757 209.256ZM443.62 204.528H446.164V214.704L451.54 209.592H454.828L449.332 214.704L455.308 222H452.044L447.58 216.336L446.164 217.656V222H443.62V204.528ZM461.905 204.864H464.881L471.481 222H468.673L467.065 217.584H459.697L458.089 222H455.305L461.905 204.864ZM460.489 215.424H466.273L463.441 207.672H463.345L460.489 215.424ZM471.837 204.864H485.877V207.096H480.165V222H477.573V207.096H471.837V204.864ZM487.946 204.864H491.042L497.018 218.592H497.09L503.042 204.864H506.138V222H503.522V209.76H503.426L498.17 222H495.914L490.658 209.76H490.562V222H487.946V204.864Z" fill="black"/>
<defs>
<clipPath id="paint0_diamond_7472_6716_clip_path"><path d="M750 215H986V211H750V215ZM988 217V393H992V217H988ZM986 395H750V399H986V395ZM748 393V217H744V393H748ZM750 395C748.895 395 748 394.105 748 393H744C744 396.314 746.686 399 750 399V395ZM988 393C988 394.105 987.105 395 986 395V399C989.314 399 992 396.314 992 393H988ZM986 215C987.105 215 988 215.895 988 217H992C992 213.686 989.314 211 986 211V215ZM750 211C746.686 211 744 213.686 744 217H748C748 215.895 748.895 215 750 215V211Z" mask="url(#path-1-inside-1_7472_6716)"/></clipPath><clipPath id="paint6_diamond_7472_6716_clip_path"><path d="M218 215H686V211H218V215ZM688 217V393H692V217H688ZM686 395H218V399H686V395ZM216 393V217H212V393H216ZM218 395C216.895 395 216 394.105 216 393H212C212 396.314 214.686 399 218 399V395ZM688 393C688 394.105 687.105 395 686 395V399C689.314 399 692 396.314 692 393H688ZM686 215C687.105 215 688 215.895 688 217H692C692 213.686 689.314 211 686 211V215ZM218 211C214.686 211 212 213.686 212 217H216C216 215.895 216.895 215 218 215V211Z" mask="url(#path-82-inside-7_7472_6716)"/></clipPath><linearGradient id="paint0_diamond_7472_6716" x1="0" y1="0" x2="500" y2="500" gradientUnits="userSpaceOnUse">
<stop offset="0.893114" stop-color="white" stop-opacity="0"/>
<stop offset="1" stop-color="#D0D9DF"/>
</linearGradient>
<linearGradient id="paint1_linear_7472_6716" x1="1078" y1="69" x2="1350" y2="69" gradientUnits="userSpaceOnUse">
<stop offset="0.00961538" stop-color="white"/>
<stop offset="0.509615" stop-color="#D0D9DF"/>
<stop offset="1" stop-color="white"/>
</linearGradient>
<linearGradient id="paint2_linear_7472_6716" x1="1078" y1="159" x2="1350" y2="159" gradientUnits="userSpaceOnUse">
<stop offset="0.00961538" stop-color="white"/>
<stop offset="0.509615" stop-color="#D0D9DF"/>
<stop offset="1" stop-color="white"/>
</linearGradient>
<linearGradient id="paint3_linear_7472_6716" x1="1078" y1="249" x2="1350" y2="249" gradientUnits="userSpaceOnUse">
<stop offset="0.00961538" stop-color="white"/>
<stop offset="0.509615" stop-color="#D0D9DF"/>
<stop offset="1" stop-color="white"/>
</linearGradient>
<linearGradient id="paint4_linear_7472_6716" x1="1078" y1="395" x2="1350" y2="395" gradientUnits="userSpaceOnUse">
<stop offset="0.00961538" stop-color="white"/>
<stop offset="0.509615" stop-color="#D0D9DF"/>
<stop offset="1" stop-color="white"/>
</linearGradient>
<linearGradient id="paint5_linear_7472_6716" x1="1078" y1="541" x2="1350" y2="541" gradientUnits="userSpaceOnUse">
<stop offset="0.00961538" stop-color="white"/>
<stop offset="0.509615" stop-color="#D0D9DF"/>
<stop offset="1" stop-color="white"/>
</linearGradient>
<linearGradient id="paint6_diamond_7472_6716" x1="0" y1="0" x2="500" y2="500" gradientUnits="userSpaceOnUse">
<stop offset="0.893114" stop-color="white" stop-opacity="0"/>
<stop offset="1" stop-color="#D0D9DF"/>
</linearGradient>
<clipPath id="clip0_7472_6716">
<rect width="20" height="20" fill="white" transform="translate(1496 275.5)"/>
</clipPath>
</defs>
</svg>
